<svg width="917" height="111" viewBox="0 0 917 111" fill="none" xmlns="http://www.w3.org/2000/svg">
<mask id="path-1-outside-1_1_327" maskUnits="userSpaceOnUse" x="-5" y="-5" width="927" height="121" fill="black">
<rect fill="white" x="-5" y="-5" width="927" height="121"/>
<path d="M55.0529 109H26.1029V25.6H0.00292974V1.89999H81.1529V25.6H55.0529V109ZM151.579 109L146.329 88.9H111.529L106.129 109H74.3291L109.279 1.45H147.829L183.229 109H151.579ZM135.679 47.65C135.179 45.75 134.479 43.05 133.579 39.55C132.679 35.95 131.779 32.25 130.879 28.45C129.979 24.65 129.279 21.55 128.779 19.15C128.379 21.55 127.729 24.55 126.829 28.15C126.029 31.75 125.179 35.3 124.279 38.8C123.479 42.3 122.779 45.25 122.179 47.65L117.529 65.2H140.329L135.679 47.65ZM286.217 109H253.517L232.367 68.05L223.817 73.15V109H194.717V1.89999H223.817V48.4C225.017 46.1 226.417 43.8 228.017 41.5C229.617 39.1 231.167 36.85 232.667 34.75L255.167 1.89999H286.817L253.067 49.9L286.217 109ZM361.296 109H297.696V1.89999H361.296V25.15H326.646V41.95H358.746V65.2H326.646V85.45H361.296V109ZM484.685 109L479.435 88.9H444.635L439.235 109H407.435L442.385 1.45H480.935L516.335 109H484.685ZM468.785 47.65C468.285 45.75 467.585 43.05 466.685 39.55C465.785 35.95 464.885 32.25 463.985 28.45C463.085 24.65 462.385 21.55 461.885 19.15C461.485 21.55 460.835 24.55 459.935 28.15C459.135 31.75 458.285 35.3 457.385 38.8C456.585 42.3 455.885 45.25 455.285 47.65L450.635 65.2H473.435L468.785 47.65ZM636.837 76.45C636.837 82.25 635.337 87.75 632.337 92.95C629.437 98.15 624.887 102.4 618.687 105.7C612.587 108.9 604.637 110.5 594.837 110.5C589.937 110.5 585.637 110.25 581.937 109.75C578.337 109.35 574.937 108.65 571.737 107.65C568.537 106.65 565.237 105.35 561.837 103.75V77.95C567.637 80.85 573.487 83.1 579.387 84.7C585.287 86.2 590.637 86.95 595.437 86.95C598.337 86.95 600.687 86.6 602.487 85.9C604.287 85.2 605.637 84.25 606.537 83.05C607.437 81.85 607.887 80.5 607.887 79C607.887 77.1 607.237 75.5 605.937 74.2C604.637 72.9 602.587 71.55 599.787 70.15C596.987 68.75 593.237 67 588.537 64.9C584.537 63.1 580.937 61.2 577.737 59.2C574.537 57.2 571.787 54.95 569.487 52.45C567.287 49.95 565.587 47.05 564.387 43.75C563.187 40.35 562.587 36.35 562.587 31.75C562.587 24.85 564.287 19.1 567.687 14.5C571.087 9.79999 575.787 6.29999 581.787 3.99999C587.887 1.59999 594.937 0.399994 602.937 0.399994C609.937 0.399994 616.237 1.2 621.837 2.8C627.437 4.3 632.437 6.05 636.837 8.04999L627.987 30.4C623.387 28.3 618.837 26.65 614.337 25.45C609.937 24.15 605.837 23.5 602.037 23.5C599.537 23.5 597.487 23.8 595.887 24.4C594.287 25 593.087 25.85 592.287 26.95C591.587 27.95 591.237 29.1 591.237 30.4C591.237 32.1 591.887 33.6 593.187 34.9C594.487 36.2 596.637 37.65 599.637 39.25C602.737 40.75 606.937 42.7 612.237 45.1C617.437 47.4 621.837 49.95 625.437 52.75C629.137 55.45 631.937 58.7 633.837 62.5C635.837 66.2 636.837 70.85 636.837 76.45ZM690.41 1.89999C704.01 1.89999 714.16 4.84999 720.86 10.75C727.66 16.65 731.06 25.05 731.06 35.95C731.06 40.85 730.36 45.55 728.96 50.05C727.56 54.45 725.26 58.45 722.06 62.05C718.96 65.55 714.81 68.35 709.61 70.45C704.41 72.45 698.01 73.45 690.41 73.45H682.31V109H653.36V1.89999H690.41ZM689.81 25.3H682.31V49.9H688.01C690.51 49.9 692.81 49.5 694.91 48.7C697.11 47.8 698.86 46.4 700.16 44.5C701.46 42.5 702.11 39.9 702.11 36.7C702.11 33.3 701.11 30.55 699.11 28.45C697.11 26.35 694.01 25.3 689.81 25.3ZM797.485 109H741.685V92.5L755.035 87.4V23.35L741.685 18.4V1.89999H797.485V18.4L784.135 23.35V87.4L797.485 92.5V109ZM916.199 109H878.249L839.099 33.55H838.499C838.699 35.25 838.849 37.25 838.949 39.55C839.149 41.85 839.299 44.25 839.399 46.75C839.499 49.25 839.599 51.7 839.699 54.1C839.799 56.5 839.849 58.7 839.849 60.7V109H814.199V1.89999H851.999L890.999 76.3H891.449C891.349 74.6 891.199 72.65 890.999 70.45C890.899 68.15 890.799 65.85 890.699 63.55C890.599 61.15 890.499 58.8 890.399 56.5C890.399 54.2 890.399 52.15 890.399 50.35V1.89999H916.199V109Z"/>
</mask>
<path d="M55.0529 109V114H60.0529V109H55.0529ZM26.1029 109H21.1029V114H26.1029V109ZM26.1029 25.6H31.1029V20.6H26.1029V25.6ZM0.00292969 25.6H-4.99707V30.6H0.00292969V25.6ZM0.00292969 1.89999V-3.10001H-4.99707V1.89999H0.00292969ZM81.1529 1.89999H86.1529V-3.10001H81.1529V1.89999ZM81.1529 25.6V30.6H86.1529V25.6H81.1529ZM55.0529 25.6V20.6H50.0529V25.6H55.0529ZM55.0529 104H26.1029V114H55.0529V104ZM31.1029 109V25.6H21.1029V109H31.1029ZM26.1029 20.6H0.00292969V30.6H26.1029V20.6ZM5.00293 25.6V1.89999H-4.99707V25.6H5.00293ZM0.00292969 6.89999H81.1529V-3.10001H0.00292969V6.89999ZM76.1529 1.89999V25.6H86.1529V1.89999H76.1529ZM81.1529 20.6H55.0529V30.6H81.1529V20.6ZM50.0529 25.6V109H60.0529V25.6H50.0529ZM151.579 109L146.741 110.264L147.717 114H151.579V109ZM146.329 88.9L151.167 87.6364L150.191 83.9H146.329V88.9ZM111.529 88.9V83.9H107.695L106.7 87.6027L111.529 88.9ZM106.129 109V114H109.963L110.958 110.297L106.129 109ZM74.3291 109L69.5739 107.455L67.4469 114H74.3291V109ZM109.279 1.45V-3.55H105.647L104.524 -0.0952797L109.279 1.45ZM147.829 1.45L152.578 -0.113243L151.447 -3.55H147.829V1.45ZM183.229 109V114H190.139L187.978 107.437L183.229 109ZM135.679 47.65L130.844 48.9225L130.846 48.9306L135.679 47.65ZM133.579 39.55L128.728 40.7627L128.732 40.779L128.737 40.7952L133.579 39.55ZM130.879 28.45L126.014 29.6023V29.6023L130.879 28.45ZM128.779 19.15L133.674 18.1302L123.847 18.328L128.779 19.15ZM126.829 28.15L121.978 26.9373L121.962 27.0011L121.948 27.0653L126.829 28.15ZM124.279 38.8L119.437 37.5548L119.42 37.6201L119.405 37.6859L124.279 38.8ZM122.179 47.65L127.012 48.9306L127.021 48.8967L127.03 48.8627L122.179 47.65ZM117.529 65.2L112.696 63.9194L111.032 70.2H117.529V65.2ZM140.329 65.2V70.2H146.826L145.162 63.9194L140.329 65.2ZM156.417 107.736L151.167 87.6364L141.491 90.1636L146.741 110.264L156.417 107.736ZM146.329 83.9H111.529V93.9H146.329V83.9ZM106.7 87.6027L101.3 107.703L110.958 110.297L116.358 90.1973L106.7 87.6027ZM106.129 104H74.3291V114H106.129V104ZM79.0843 110.545L114.034 2.99528L104.524 -0.0952797L69.5739 107.455L79.0843 110.545ZM109.279 6.45H147.829V-3.55H109.279V6.45ZM143.08 3.01324L178.48 110.563L187.978 107.437L152.578 -0.113243L143.08 3.01324ZM183.229 104H151.579V114H183.229V104ZM140.514 46.3775C140.018 44.4912 139.321 41.8019 138.422 38.3048L128.737 40.7952C129.637 44.2981 130.34 47.0088 130.844 48.9225L140.514 46.3775ZM138.43 38.3373C137.535 34.7584 136.64 31.0786 135.745 27.2977L126.014 29.6023C126.918 33.4214 127.823 37.1416 128.728 40.7627L138.43 38.3373ZM135.745 27.2977C134.85 23.5193 134.161 20.4679 133.674 18.1302L123.884 20.1698C124.397 22.632 125.109 25.7807 126.014 29.6023L135.745 27.2977ZM123.847 18.328C123.477 20.5478 122.861 23.4071 121.978 26.9373L131.68 29.3627C132.597 25.6929 133.281 22.5522 133.711 19.972L123.847 18.328ZM121.948 27.0653C121.16 30.6127 120.323 34.1092 119.437 37.5548L129.122 40.0452C130.036 36.4908 130.898 32.8873 131.71 29.2346L121.948 27.0653ZM119.405 37.6859C118.609 41.1662 117.917 44.081 117.328 46.4373L127.03 48.8627C127.641 46.4189 128.349 43.4338 129.153 39.9141L119.405 37.6859ZM117.346 46.3694L112.696 63.9194L122.362 66.4806L127.012 48.9306L117.346 46.3694ZM117.529 70.2H140.329V60.2H117.529V70.2ZM145.162 63.9194L140.512 46.3694L130.846 48.9306L135.496 66.4806L145.162 63.9194ZM286.217 109V114H294.754L290.578 106.554L286.217 109ZM253.517 109L249.075 111.294L250.472 114H253.517V109ZM232.367 68.05L236.809 65.7555L234.37 61.0331L229.806 63.7559L232.367 68.05ZM223.817 73.15L221.256 68.8559L218.817 70.3105V73.15H223.817ZM223.817 109V114H228.817V109H223.817ZM194.717 109H189.717V114H194.717V109ZM194.717 1.89999V-3.10001H189.717V1.89999H194.717ZM223.817 1.89999H228.817V-3.10001H223.817V1.89999ZM223.817 48.4H218.817L228.25 50.7128L223.817 48.4ZM228.017 41.5L232.122 44.3553L232.15 44.3147L232.177 44.2735L228.017 41.5ZM232.667 34.75L236.736 37.6562L236.764 37.6161L236.792 37.5754L232.667 34.75ZM255.167 1.89999V-3.10001H252.531L251.042 -0.925453L255.167 1.89999ZM286.817 1.89999L290.907 4.77588L296.445 -3.10001H286.817V1.89999ZM253.067 49.9L248.977 47.0241L247.166 49.5998L248.706 52.346L253.067 49.9ZM286.217 104H253.517V114H286.217V104ZM257.959 106.706L236.809 65.7555L227.925 70.3445L249.075 111.294L257.959 106.706ZM229.806 63.7559L221.256 68.8559L226.378 77.4441L234.928 72.3441L229.806 63.7559ZM218.817 73.15V109H228.817V73.15H218.817ZM223.817 104H194.717V114H223.817V104ZM199.717 109V1.89999H189.717V109H199.717ZM194.717 6.89999H223.817V-3.10001H194.717V6.89999ZM218.817 1.89999V48.4H228.817V1.89999H218.817ZM228.25 50.7128C229.345 48.6146 230.633 46.4953 232.122 44.3553L223.912 38.6447C222.201 41.1047 220.689 43.5854 219.384 46.0872L228.25 50.7128ZM232.177 44.2735C233.751 41.9131 235.27 39.7077 236.736 37.6562L228.598 31.8438C227.064 33.9923 225.483 36.2869 223.857 38.7265L232.177 44.2735ZM236.792 37.5754L259.292 4.72544L251.042 -0.925453L228.542 31.9246L236.792 37.5754ZM255.167 6.89999H286.817V-3.10001H255.167V6.89999ZM282.727 -0.975891L248.977 47.0241L257.157 52.7759L290.907 4.77588L282.727 -0.975891ZM248.706 52.346L281.856 111.446L290.578 106.554L257.428 47.4539L248.706 52.346ZM361.296 109V114H366.296V109H361.296ZM297.695 109H292.695V114H297.695V109ZM297.695 1.89999V-3.10001H292.695V1.89999H297.695ZM361.296 1.89999H366.296V-3.10001H361.296V1.89999ZM361.296 25.15V30.15H366.296V25.15H361.296ZM326.646 25.15V20.15H321.646V25.15H326.646ZM326.646 41.95H321.646V46.95H326.646V41.95ZM358.745 41.95H363.745V36.95H358.745V41.95ZM358.745 65.2V70.2H363.745V65.2H358.745ZM326.646 65.2V60.2H321.646V65.2H326.646ZM326.646 85.45H321.646V90.45H326.646V85.45ZM361.296 85.45H366.296V80.45H361.296V85.45ZM361.296 104H297.695V114H361.296V104ZM302.695 109V1.89999H292.695V109H302.695ZM297.695 6.89999H361.296V-3.10001H297.695V6.89999ZM356.296 1.89999V25.15H366.296V1.89999H356.296ZM361.296 20.15H326.646V30.15H361.296V20.15ZM321.646 25.15V41.95H331.646V25.15H321.646ZM326.646 46.95H358.745V36.95H326.646V46.95ZM353.745 41.95V65.2H363.745V41.95H353.745ZM358.745 60.2H326.646V70.2H358.745V60.2ZM321.646 65.2V85.45H331.646V65.2H321.646ZM326.646 90.45H361.296V80.45H326.646V90.45ZM356.296 85.45V109H366.296V85.45H356.296ZM484.685 109L479.847 110.264L480.823 114H484.685V109ZM479.435 88.9L484.272 87.6364L483.296 83.9H479.435V88.9ZM444.635 88.9V83.9H440.801L439.806 87.6027L444.635 88.9ZM439.235 109V114H443.069L444.063 110.297L439.235 109ZM407.435 109L402.679 107.455L400.552 114H407.435V109ZM442.385 1.45V-3.55H438.752L437.629 -0.0952797L442.385 1.45ZM480.935 1.45L485.684 -0.113243L484.553 -3.55H480.935V1.45ZM516.335 109V114H523.244L521.084 107.437L516.335 109ZM468.785 47.65L463.949 48.9225L463.951 48.9306L468.785 47.65ZM466.685 39.55L461.834 40.7627L461.838 40.779L461.842 40.7952L466.685 39.55ZM463.985 28.45L459.119 29.6023V29.6023L463.985 28.45ZM461.885 19.15L466.779 18.1302L456.953 18.328L461.885 19.15ZM459.935 28.15L455.084 26.9373L455.068 27.0011L455.054 27.0653L459.935 28.15ZM457.385 38.8L452.542 37.5548L452.525 37.6201L452.51 37.6859L457.385 38.8ZM455.285 47.65L460.118 48.9306L460.127 48.8967L460.135 48.8627L455.285 47.65ZM450.635 65.2L445.801 63.9194L444.137 70.2H450.635V65.2ZM473.435 65.2V70.2H479.932L478.268 63.9194L473.435 65.2ZM489.522 107.736L484.272 87.6364L474.597 90.1636L479.847 110.264L489.522 107.736ZM479.435 83.9H444.635V93.9H479.435V83.9ZM439.806 87.6027L434.406 107.703L444.063 110.297L449.463 90.1973L439.806 87.6027ZM439.235 104H407.435V114H439.235V104ZM412.19 110.545L447.14 2.99528L437.629 -0.0952797L402.679 107.455L412.19 110.545ZM442.385 6.45H480.935V-3.55H442.385V6.45ZM476.185 3.01324L511.585 110.563L521.084 107.437L485.684 -0.113243L476.185 3.01324ZM516.335 104H484.685V114H516.335V104ZM473.62 46.3775C473.124 44.4912 472.426 41.8019 471.527 38.3048L461.842 40.7952C462.743 44.2981 463.446 47.0088 463.949 48.9225L473.62 46.3775ZM471.535 38.3373C470.641 34.7584 469.745 31.0786 468.85 27.2977L459.119 29.6023C460.024 33.4214 460.929 37.1416 461.834 40.7627L471.535 38.3373ZM468.85 27.2977C467.955 23.5193 467.266 20.4679 466.779 18.1302L456.99 20.1698C457.503 22.632 458.214 25.7807 459.119 29.6023L468.85 27.2977ZM456.953 18.328C456.583 20.5478 455.966 23.4071 455.084 26.9373L464.785 29.3627C465.703 25.6929 466.386 22.5522 466.817 19.972L456.953 18.328ZM455.054 27.0653C454.265 30.6127 453.428 34.1092 452.542 37.5548L462.227 40.0452C463.141 36.4908 464.004 32.8873 464.815 29.2346L455.054 27.0653ZM452.51 37.6859C451.715 41.1662 451.023 44.081 450.434 46.4373L460.135 48.8627C460.746 46.4189 461.454 43.4338 462.259 39.9141L452.51 37.6859ZM450.451 46.3694L445.801 63.9194L455.468 66.4806L460.118 48.9306L450.451 46.3694ZM450.635 70.2H473.435V60.2H450.635V70.2ZM478.268 63.9194L473.618 46.3694L463.951 48.9306L468.601 66.4806L478.268 63.9194ZM632.337 92.95L628.006 90.4514L627.988 90.4829L627.97 90.5147L632.337 92.95ZM618.687 105.7L621.01 110.128L621.023 110.121L621.037 110.114L618.687 105.7ZM581.937 109.75L582.607 104.795L582.548 104.787L582.489 104.781L581.937 109.75ZM571.737 107.65L573.229 102.878L571.737 107.65ZM561.837 103.75H556.837V106.923L559.708 108.274L561.837 103.75ZM561.837 77.95L564.073 73.4779L556.837 69.8598V77.95H561.837ZM579.387 84.7L578.079 89.5257L578.117 89.5361L578.155 89.5458L579.387 84.7ZM602.487 85.9L600.675 81.24L602.487 85.9ZM605.937 74.2L609.473 70.6645V70.6645L605.937 74.2ZM588.537 64.9L586.485 69.4596L586.498 69.465L588.537 64.9ZM577.737 59.2L575.087 63.44L577.737 59.2ZM569.487 52.45L565.734 55.7531L565.77 55.7946L565.808 55.8353L569.487 52.45ZM564.387 43.75L559.672 45.4141L559.68 45.4364L559.688 45.4587L564.387 43.75ZM567.687 14.5L571.708 17.4719L571.723 17.4513L571.738 17.4306L567.687 14.5ZM581.787 3.99999L583.577 8.66872L583.597 8.66086L583.618 8.65282L581.787 3.99999ZM621.837 2.8L620.464 7.60762L620.504 7.61901L620.544 7.62974L621.837 2.8ZM636.837 8.05L641.486 9.8908L643.238 5.46702L638.906 3.49816L636.837 8.05ZM627.987 30.4L625.911 34.9484L630.698 37.1341L632.636 32.2408L627.987 30.4ZM614.337 25.45L612.921 30.2451L612.985 30.264L613.049 30.2812L614.337 25.45ZM595.887 24.4L597.643 29.0816V29.0816L595.887 24.4ZM592.287 26.95L588.244 24.0091L588.217 24.0457L588.191 24.0827L592.287 26.95ZM599.637 39.25L597.284 43.6618L597.371 43.708L597.459 43.7508L599.637 39.25ZM612.237 45.1L610.175 49.6548L610.195 49.6638L610.215 49.6727L612.237 45.1ZM625.437 52.75L622.368 56.6968L622.428 56.7438L622.49 56.7889L625.437 52.75ZM633.837 62.5L629.365 64.7361L629.401 64.8074L629.439 64.8776L633.837 62.5ZM631.837 76.45C631.837 81.3413 630.584 85.9833 628.006 90.4514L636.668 95.4486C640.091 89.5167 641.837 83.1587 641.837 76.45H631.837ZM627.97 90.5147C625.618 94.7337 621.844 98.3555 616.338 101.286L621.037 110.114C627.93 106.444 633.257 101.566 636.704 95.3853L627.97 90.5147ZM616.365 101.272C611.219 103.971 604.149 105.5 594.837 105.5V115.5C605.126 115.5 613.955 113.829 621.01 110.128L616.365 101.272ZM594.837 105.5C590.096 105.5 586.029 105.257 582.607 104.795L581.268 114.705C585.246 115.243 589.778 115.5 594.837 115.5V105.5ZM582.489 104.781C579.183 104.413 576.099 103.775 573.229 102.878L570.246 112.422C573.775 113.525 577.492 114.287 581.385 114.719L582.489 104.781ZM573.229 102.878C570.271 101.953 567.184 100.74 563.966 99.2259L559.708 108.274C563.291 109.96 566.804 111.347 570.246 112.422L573.229 102.878ZM566.837 103.75V77.95H556.837V103.75H566.837ZM559.601 82.4221C565.68 85.4615 571.84 87.8338 578.079 89.5257L580.696 79.8743C575.135 78.3662 569.595 76.2385 564.073 73.4779L559.601 82.4221ZM578.155 89.5458C584.356 91.1223 590.128 91.95 595.437 91.95V81.95C591.146 81.95 586.219 81.2777 580.619 79.8542L578.155 89.5458ZM595.437 91.95C598.677 91.95 601.708 91.5679 604.3 90.56L600.675 81.24C599.667 81.6321 597.998 81.95 595.437 81.95V91.95ZM604.3 90.56C606.723 89.6176 608.937 88.1832 610.537 86.05L602.537 80.05C602.337 80.3168 601.852 80.7824 600.675 81.24L604.3 90.56ZM610.537 86.05C612.086 83.9845 612.887 81.5818 612.887 79H602.887C602.887 79.4182 602.788 79.7155 602.537 80.05L610.537 86.05ZM612.887 79C612.887 75.8235 611.745 72.9366 609.473 70.6645L602.402 77.7355C602.73 78.0634 602.887 78.3765 602.887 79H612.887ZM609.473 70.6645C607.618 68.8093 605.016 67.1743 602.023 65.6779L597.551 74.6221C600.158 75.9257 601.657 76.9907 602.402 77.7355L609.473 70.6645ZM602.023 65.6779C599.131 64.2316 595.307 62.4483 590.577 60.335L586.498 69.465C591.168 71.5517 594.844 73.2684 597.551 74.6221L602.023 65.6779ZM590.589 60.3404C586.763 58.6187 583.368 56.8227 580.387 54.96L575.087 63.44C578.507 65.5773 582.311 67.5813 586.485 69.4596L590.589 60.3404ZM580.387 54.96C577.526 53.1715 575.132 51.2008 573.167 49.0647L565.808 55.8353C568.442 58.6992 571.549 61.2285 575.087 63.44L580.387 54.96ZM573.241 49.1469C571.475 47.1399 570.085 44.7878 569.086 42.0413L559.688 45.4587C561.09 49.3122 563.1 52.7601 565.734 55.7531L573.241 49.1469ZM569.102 42.0859C568.135 39.3448 567.587 35.932 567.587 31.75H557.587C557.587 36.768 558.24 41.3552 559.672 45.4141L569.102 42.0859ZM567.587 31.75C567.587 25.6937 569.067 21.0459 571.708 17.4719L563.666 11.528C559.508 17.1541 557.587 24.0063 557.587 31.75H567.587ZM571.738 17.4306C574.509 13.6008 578.382 10.66 583.577 8.66872L579.998 -0.668739C573.192 1.93996 567.666 5.99923 563.636 11.5694L571.738 17.4306ZM583.618 8.65282C589.022 6.52666 595.43 5.39999 602.937 5.39999V-4.60001C594.445 -4.60001 586.753 -3.32668 579.957 -0.652836L583.618 8.65282ZM602.937 5.39999C609.563 5.39999 615.39 6.15791 620.464 7.60762L623.211 -2.00762C617.085 -3.75791 610.311 -4.60001 602.937 -4.60001V5.39999ZM620.544 7.62974C625.929 9.07214 630.662 10.7354 634.768 12.6018L638.906 3.49816C634.212 1.36456 628.946 -0.472149 623.131 -2.02974L620.544 7.62974ZM632.188 6.20919L623.339 28.5592L632.636 32.2408L641.486 9.8908L632.188 6.20919ZM630.064 25.8516C625.231 23.6452 620.418 21.8967 615.626 20.6188L613.049 30.2812C617.257 31.4033 621.544 32.9548 625.911 34.9484L630.064 25.8516ZM615.754 20.6549C610.986 19.2462 606.404 18.5 602.037 18.5V28.5C605.27 28.5 608.889 29.0538 612.921 30.2451L615.754 20.6549ZM602.037 18.5C599.19 18.5 596.489 18.8344 594.132 19.7184L597.643 29.0816C598.486 28.7656 599.884 28.5 602.037 28.5V18.5ZM594.132 19.7184C591.85 20.5741 589.751 21.9364 588.244 24.0091L596.331 29.8909C596.424 29.7636 596.725 29.4259 597.643 29.0816L594.132 19.7184ZM588.191 24.0827C586.864 25.979 586.237 28.1446 586.237 30.4H596.237C596.237 30.0554 596.311 29.921 596.383 29.8173L588.191 24.0827ZM586.237 30.4C586.237 33.5407 587.498 36.2822 589.652 38.4355L596.723 31.3645C596.276 30.9178 596.237 30.6592 596.237 30.4H586.237ZM589.652 38.4355C591.48 40.2641 594.152 41.9911 597.284 43.6618L601.99 34.8382C599.123 33.3089 597.494 32.1359 596.723 31.3645L589.652 38.4355ZM597.459 43.7508C600.615 45.2775 604.858 47.2474 610.175 49.6548L614.3 40.5452C609.016 38.1526 604.86 36.2225 601.815 34.7492L597.459 43.7508ZM610.215 49.6727C615.129 51.8462 619.157 54.2 622.368 56.6968L628.507 48.8032C624.517 45.7 619.746 42.9538 614.26 40.5273L610.215 49.6727ZM622.49 56.7889C625.597 59.056 627.85 61.7051 629.365 64.7361L638.309 60.2639C636.025 55.6949 632.678 51.844 628.385 48.711L622.49 56.7889ZM629.439 64.8776C630.935 67.6453 631.837 71.4155 631.837 76.45H641.837C641.837 70.2845 640.74 64.7547 638.236 60.1224L629.439 64.8776ZM720.86 10.75L717.555 14.5024L717.569 14.5146L717.583 14.5266L720.86 10.75ZM728.96 50.05L733.724 51.566L733.729 51.5507L733.734 51.5353L728.96 50.05ZM722.06 62.05L718.323 58.7282L718.317 58.7348L722.06 62.05ZM709.61 70.45L711.404 75.1167L711.443 75.1018L711.482 75.0862L709.61 70.45ZM682.31 73.45V68.45H677.31V73.45H682.31ZM682.31 109V114H687.31V109H682.31ZM653.36 109H648.36V114H653.36V109ZM653.36 1.89999V-3.10001H648.36V1.89999H653.36ZM682.31 25.3V20.3H677.31V25.3H682.31ZM682.31 49.9H677.31V54.9H682.31V49.9ZM694.91 48.7L696.69 53.3724L696.746 53.3508L696.803 53.3277L694.91 48.7ZM700.16 44.5L704.286 47.3234L704.32 47.2746L704.352 47.2249L700.16 44.5ZM699.11 28.45L695.489 31.8983L699.11 28.45ZM690.41 6.89999C703.407 6.89999 712.142 9.73603 717.555 14.5024L724.164 6.99754C716.177 -0.0360451 704.612 -3.10001 690.41 -3.10001V6.89999ZM717.583 14.5266C723.059 19.2782 726.06 26.1655 726.06 35.95H736.06C736.06 23.9345 732.26 14.0218 724.136 6.97338L717.583 14.5266ZM726.06 35.95C726.06 40.3665 725.43 44.5645 724.185 48.5647L733.734 51.5353C735.289 46.5355 736.06 41.3335 736.06 35.95H726.06ZM724.195 48.534C723.016 52.2379 721.078 55.6284 718.323 58.7282L725.797 65.3718C729.441 61.2716 732.103 56.6621 733.724 51.566L724.195 48.534ZM718.317 58.7348C715.822 61.5513 712.362 63.9463 707.737 65.8138L711.482 75.0862C717.258 72.7537 722.097 69.5487 725.802 65.3652L718.317 58.7348ZM707.815 65.7833C703.354 67.4987 697.605 68.45 690.41 68.45V78.45C698.414 78.45 705.465 77.4012 711.404 75.1167L707.815 65.7833ZM690.41 68.45H682.31V78.45H690.41V68.45ZM677.31 73.45V109H687.31V73.45H677.31ZM682.31 104H653.36V114H682.31V104ZM658.36 109V1.89999H648.36V109H658.36ZM653.36 6.89999H690.41V-3.10001H653.36V6.89999ZM689.81 20.3H682.31V30.3H689.81V20.3ZM677.31 25.3V49.9H687.31V25.3H677.31ZM682.31 54.9H688.01V44.9H682.31V54.9ZM688.01 54.9C691.05 54.9 693.961 54.412 696.69 53.3724L693.13 44.0276C691.658 44.588 689.969 44.9 688.01 44.9V54.9ZM696.803 53.3277C699.876 52.0703 702.415 50.0576 704.286 47.3234L696.033 41.6766C695.304 42.7424 694.343 43.5297 693.016 44.0723L696.803 53.3277ZM704.352 47.2249C706.331 44.1804 707.11 40.5451 707.11 36.7H697.11C697.11 39.2549 696.588 40.8196 695.967 41.7751L704.352 47.2249ZM707.11 36.7C707.11 32.253 705.767 28.1899 702.73 25.0017L695.489 31.8983C696.453 32.9101 697.11 34.347 697.11 36.7H707.11ZM702.73 25.0017C699.431 21.5375 694.759 20.3 689.81 20.3V30.3C693.26 30.3 694.788 31.1625 695.489 31.8983L702.73 25.0017ZM797.485 109V114H802.485V109H797.485ZM741.685 109H736.685V114H741.685V109ZM741.685 92.5L739.901 87.8292L736.685 89.0577V92.5H741.685ZM755.035 87.4L756.819 92.0708L760.035 90.8423V87.4H755.035ZM755.035 23.35H760.035V19.8713L756.773 18.6619L755.035 23.35ZM741.685 18.4H736.685V21.8787L739.947 23.0881L741.685 18.4ZM741.685 1.89999V-3.10001H736.685V1.89999H741.685ZM797.485 1.89999H802.485V-3.10001H797.485V1.89999ZM797.485 18.4L799.223 23.0881L802.485 21.8787V18.4H797.485ZM784.135 23.35L782.397 18.6619L779.135 19.8713V23.35H784.135ZM784.135 87.4H779.135V90.8423L782.351 92.0708L784.135 87.4ZM797.485 92.5H802.485V89.0577L799.269 87.8292L797.485 92.5ZM797.485 104H741.685V114H797.485V104ZM746.685 109V92.5H736.685V109H746.685ZM743.469 97.1708L756.819 92.0708L753.251 82.7292L739.901 87.8292L743.469 97.1708ZM760.035 87.4V23.35H750.035V87.4H760.035ZM756.773 18.6619L743.423 13.7119L739.947 23.0881L753.297 28.0381L756.773 18.6619ZM746.685 18.4V1.89999H736.685V18.4H746.685ZM741.685 6.89999H797.485V-3.10001H741.685V6.89999ZM792.485 1.89999V18.4H802.485V1.89999H792.485ZM795.747 13.7119L782.397 18.6619L785.873 28.0381L799.223 23.0881L795.747 13.7119ZM779.135 23.35V87.4H789.135V23.35H779.135ZM782.351 92.0708L795.701 97.1708L799.269 87.8292L785.919 82.7292L782.351 92.0708ZM792.485 92.5V109H802.485V92.5H792.485ZM916.199 109V114H921.199V109H916.199ZM878.249 109L873.811 111.303L875.211 114H878.249V109ZM839.099 33.55L843.537 31.2471L842.138 28.55H839.099V33.55ZM838.499 33.55V28.55H832.877L833.534 34.1342L838.499 33.55ZM838.949 39.55L833.954 39.7672L833.959 39.8753L833.968 39.9831L838.949 39.55ZM839.399 46.75L834.403 46.9498L839.399 46.75ZM839.699 54.1L844.695 53.8918L839.699 54.1ZM839.849 109V114H844.849V109H839.849ZM814.199 109H809.199V114H814.199V109ZM814.199 1.89999V-3.10001H809.199V1.89999H814.199ZM851.999 1.89999L856.428 -0.421375L855.024 -3.10001H851.999V1.89999ZM890.999 76.3L886.571 78.6214L887.975 81.3H890.999V76.3ZM891.449 76.3V81.3H896.752L896.441 76.0064L891.449 76.3ZM890.999 70.45L886.004 70.6672L886.009 70.7851L886.02 70.9027L890.999 70.45ZM890.699 63.55L885.704 63.7581L885.704 63.7672L890.699 63.55ZM890.399 56.5H885.399V56.6086L885.404 56.7172L890.399 56.5ZM890.399 1.89999V-3.10001H885.399V1.89999H890.399ZM916.199 1.89999H921.199V-3.10001H916.199V1.89999ZM916.199 104H878.249V114H916.199V104ZM882.688 106.697L843.537 31.2471L834.661 35.8529L873.811 111.303L882.688 106.697ZM839.099 28.55H838.499V38.55H839.099V28.55ZM833.534 34.1342C833.715 35.679 833.858 37.5511 833.954 39.7672L843.945 39.3328C843.841 36.9489 843.683 34.821 843.465 32.9658L833.534 34.1342ZM833.968 39.9831C834.161 42.1994 834.306 44.5213 834.403 46.9498L844.395 46.5502C844.293 43.9787 844.138 41.5006 843.931 39.1168L833.968 39.9831ZM834.403 46.9498C834.504 49.4525 834.604 51.9053 834.704 54.3082L844.695 53.8918C844.595 51.4947 844.495 49.0475 844.395 46.5502L834.403 46.9498ZM834.704 54.3082C834.801 56.6521 834.849 58.7815 834.849 60.7H844.849C844.849 58.6185 844.797 56.3479 844.695 53.8918L834.704 54.3082ZM834.849 60.7V109H844.849V60.7H834.849ZM839.849 104H814.199V114H839.849V104ZM819.199 109V1.89999H809.199V109H819.199ZM814.199 6.89999H851.999V-3.10001H814.199V6.89999ZM847.571 4.22136L886.571 78.6214L895.428 73.9786L856.428 -0.421375L847.571 4.22136ZM890.999 81.3H891.449V71.3H890.999V81.3ZM896.441 76.0064C896.337 74.2405 896.182 72.2357 895.979 69.9973L886.02 70.9027C886.216 73.0643 886.362 74.9595 886.458 76.5936L896.441 76.0064ZM895.995 70.2328C895.895 67.9328 895.795 65.6328 895.695 63.3328L885.704 63.7672C885.804 66.0672 885.904 68.3672 886.004 70.6672L895.995 70.2328ZM895.695 63.3419C895.595 60.939 895.495 58.586 895.395 56.2828L885.404 56.7172C885.504 59.014 885.604 61.361 885.704 63.7581L895.695 63.3419ZM895.399 56.5C895.399 56.4955 895.399 56.491 895.399 56.4865C895.399 56.482 895.399 56.4775 895.399 56.4731C895.399 56.4686 895.399 56.4641 895.399 56.4596C895.399 56.4551 895.399 56.4506 895.399 56.4461C895.399 56.4417 895.399 56.4372 895.399 56.4327C895.399 56.4282 895.399 56.4237 895.399 56.4192C895.399 56.4148 895.399 56.4103 895.399 56.4058C895.399 56.4013 895.399 56.3968 895.399 56.3924C895.399 56.3879 895.399 56.3834 895.399 56.3789C895.399 56.3745 895.399 56.37 895.399 56.3655C895.399 56.361 895.399 56.3566 895.399 56.3521C895.399 56.3476 895.399 56.3432 895.399 56.3387C895.399 56.3342 895.399 56.3298 895.399 56.3253C895.399 56.3208 895.399 56.3164 895.399 56.3119C895.399 56.3074 895.399 56.303 895.399 56.2985C895.399 56.294 895.399 56.2896 895.399 56.2851C895.399 56.2806 895.399 56.2762 895.399 56.2717C895.399 56.2673 895.399 56.2628 895.399 56.2583C895.399 56.2539 895.399 56.2494 895.399 56.245C895.399 56.2405 895.399 56.2361 895.399 56.2316C895.399 56.2272 895.399 56.2227 895.399 56.2183C895.399 56.2138 895.399 56.2094 895.399 56.2049C895.399 56.2004 895.399 56.196 895.399 56.1916C895.399 56.1871 895.399 56.1827 895.399 56.1782C895.399 56.1738 895.399 56.1693 895.399 56.1649C895.399 56.1604 895.399 56.156 895.399 56.1515C895.399 56.1471 895.399 56.1427 895.399 56.1382C895.399 56.1338 895.399 56.1293 895.399 56.1249C895.399 56.1205 895.399 56.116 895.399 56.1116C895.399 56.1071 895.399 56.1027 895.399 56.0983C895.399 56.0938 895.399 56.0894 895.399 56.085C895.399 56.0805 895.399 56.0761 895.399 56.0717C895.399 56.0672 895.399 56.0628 895.399 56.0584C895.399 56.054 895.399 56.0495 895.399 56.0451C895.399 56.0407 895.399 56.0362 895.399 56.0318C895.399 56.0274 895.399 56.023 895.399 56.0185C895.399 56.0141 895.399 56.0097 895.399 56.0053C895.399 56.0009 895.399 55.9964 895.399 55.992C895.399 55.9876 895.399 55.9832 895.399 55.9788C895.399 55.9743 895.399 55.9699 895.399 55.9655C895.399 55.9611 895.399 55.9567 895.399 55.9523C895.399 55.9479 895.399 55.9434 895.399 55.939C895.399 55.9346 895.399 55.9302 895.399 55.9258C895.399 55.9214 895.399 55.917 895.399 55.9126C895.399 55.9082 895.399 55.9037 895.399 55.8993C895.399 55.8949 895.399 55.8905 895.399 55.8861C895.399 55.8817 895.399 55.8773 895.399 55.8729C895.399 55.8685 895.399 55.8641 895.399 55.8597C895.399 55.8553 895.399 55.8509 895.399 55.8465C895.399 55.8421 895.399 55.8377 895.399 55.8333C895.399 55.8289 895.399 55.8245 895.399 55.8201C895.399 55.8157 895.399 55.8113 895.399 55.807C895.399 55.8026 895.399 55.7982 895.399 55.7938C895.399 55.7894 895.399 55.785 895.399 55.7806C895.399 55.7762 895.399 55.7718 895.399 55.7674C895.399 55.7631 895.399 55.7587 895.399 55.7543C895.399 55.7499 895.399 55.7455 895.399 55.7411C895.399 55.7367 895.399 55.7324 895.399 55.728C895.399 55.7236 895.399 55.7192 895.399 55.7148C895.399 55.7105 895.399 55.7061 895.399 55.7017C895.399 55.6973 895.399 55.6929 895.399 55.6886C895.399 55.6842 895.399 55.6798 895.399 55.6754C895.399 55.6711 895.399 55.6667 895.399 55.6623C895.399 55.658 895.399 55.6536 895.399 55.6492C895.399 55.6448 895.399 55.6405 895.399 55.6361C895.399 55.6317 895.399 55.6274 895.399 55.623C895.399 55.6186 895.399 55.6143 895.399 55.6099C895.399 55.6055 895.399 55.6012 895.399 55.5968C895.399 55.5925 895.399 55.5881 895.399 55.5837C895.399 55.5794 895.399 55.575 895.399 55.5707C895.399 55.5663 895.399 55.5619 895.399 55.5576C895.399 55.5532 895.399 55.5489 895.399 55.5445C895.399 55.5402 895.399 55.5358 895.399 55.5315C895.399 55.5271 895.399 55.5228 895.399 55.5184C895.399 55.514 895.399 55.5097 895.399 55.5053C895.399 55.501 895.399 55.4967 895.399 55.4923C895.399 55.488 895.399 55.4836 895.399 55.4793C895.399 55.4749 895.399 55.4706 895.399 55.4662C895.399 55.4619 895.399 55.4575 895.399 55.4532C895.399 55.4489 895.399 55.4445 895.399 55.4402C895.399 55.4358 895.399 55.4315 895.399 55.4272C895.399 55.4228 895.399 55.4185 895.399 55.4142C895.399 55.4098 895.399 55.4055 895.399 55.4012C895.399 55.3968 895.399 55.3925 895.399 55.3882C895.399 55.3838 895.399 55.3795 895.399 55.3752C895.399 55.3708 895.399 55.3665 895.399 55.3622C895.399 55.3578 895.399 55.3535 895.399 55.3492C895.399 55.3449 895.399 55.3405 895.399 55.3362C895.399 55.3319 895.399 55.3276 895.399 55.3232C895.399 55.3189 895.399 55.3146 895.399 55.3103C895.399 55.306 895.399 55.3016 895.399 55.2973C895.399 55.293 895.399 55.2887 895.399 55.2844C895.399 55.2801 895.399 55.2757 895.399 55.2714C895.399 55.2671 895.399 55.2628 895.399 55.2585C895.399 55.2542 895.399 55.2499 895.399 55.2455C895.399 55.2412 895.399 55.2369 895.399 55.2326C895.399 55.2283 895.399 55.224 895.399 55.2197C895.399 55.2154 895.399 55.2111 895.399 55.2068C895.399 55.2025 895.399 55.1982 895.399 55.1939C895.399 55.1896 895.399 55.1852 895.399 55.181C895.399 55.1767 895.399 55.1723 895.399 55.168C895.399 55.1637 895.399 55.1595 895.399 55.1552C895.399 55.1509 895.399 55.1466 895.399 55.1423C895.399 55.138 895.399 55.1337 895.399 55.1294C895.399 55.1251 895.399 55.1208 895.399 55.1165C895.399 55.1122 895.399 55.1079 895.399 55.1036C895.399 55.0993 895.399 55.095 895.399 55.0908C895.399 55.0865 895.399 55.0822 895.399 55.0779C895.399 55.0736 895.399 55.0693 895.399 55.065C895.399 55.0608 895.399 55.0565 895.399 55.0522C895.399 55.0479 895.399 55.0436 895.399 55.0393C895.399 55.0351 895.399 55.0308 895.399 55.0265C895.399 55.0222 895.399 55.018 895.399 55.0137C895.399 55.0094 895.399 55.0051 895.399 55.0008C895.399 54.9966 895.399 54.9923 895.399 54.988C895.399 54.9838 895.399 54.9795 895.399 54.9752C895.399 54.9709 895.399 54.9667 895.399 54.9624C895.399 54.9581 895.399 54.9539 895.399 54.9496C895.399 54.9453 895.399 54.9411 895.399 54.9368C895.399 54.9325 895.399 54.9283 895.399 54.924C895.399 54.9197 895.399 54.9155 895.399 54.9112C895.399 54.907 895.399 54.9027 895.399 54.8984C895.399 54.8942 895.399 54.8899 895.399 54.8857C895.399 54.8814 895.399 54.8772 895.399 54.8729C895.399 54.8686 895.399 54.8644 895.399 54.8601C895.399 54.8559 895.399 54.8516 895.399 54.8474C895.399 54.8431 895.399 54.8389 895.399 54.8346C895.399 54.8304 895.399 54.8261 895.399 54.8219C895.399 54.8176 895.399 54.8134 895.399 54.8091C895.399 54.8049 895.399 54.8006 895.399 54.7964C895.399 54.7922 895.399 54.7879 895.399 54.7837C895.399 54.7794 895.399 54.7752 895.399 54.7709C895.399 54.7667 895.399 54.7625 895.399 54.7582C895.399 54.754 895.399 54.7497 895.399 54.7455C895.399 54.7413 895.399 54.737 895.399 54.7328C895.399 54.7286 895.399 54.7243 895.399 54.7201C895.399 54.7159 895.399 54.7116 895.399 54.7074C895.399 54.7032 895.399 54.6989 895.399 54.6947C895.399 54.6905 895.399 54.6863 895.399 54.682C895.399 54.6778 895.399 54.6736 895.399 54.6694C895.399 54.6651 895.399 54.6609 895.399 54.6567C895.399 54.6525 895.399 54.6482 895.399 54.644C895.399 54.6398 895.399 54.6356 895.399 54.6314C895.399 54.6271 895.399 54.6229 895.399 54.6187C895.399 54.6145 895.399 54.6103 895.399 54.606C895.399 54.6018 895.399 54.5976 895.399 54.5934C895.399 54.5892 895.399 54.585 895.399 54.5808C895.399 54.5766 895.399 54.5723 895.399 54.5681C895.399 54.5639 895.399 54.5597 895.399 54.5555C895.399 54.5513 895.399 54.5471 895.399 54.5429C895.399 54.5387 895.399 54.5345 895.399 54.5303C895.399 54.5261 895.399 54.5219 895.399 54.5177C895.399 54.5135 895.399 54.5093 895.399 54.5051C895.399 54.5009 895.399 54.4967 895.399 54.4925C895.399 54.4883 895.399 54.4841 895.399 54.4799C895.399 54.4757 895.399 54.4715 895.399 54.4673C895.399 54.4631 895.399 54.4589 895.399 54.4547C895.399 54.4505 895.399 54.4463 895.399 54.4421C895.399 54.4379 895.399 54.4337 895.399 54.4296C895.399 54.4254 895.399 54.4212 895.399 54.417C895.399 54.4128 895.399 54.4086 895.399 54.4044C895.399 54.4002 895.399 54.3961 895.399 54.3919C895.399 54.3877 895.399 54.3835 895.399 54.3793C895.399 54.3752 895.399 54.371 895.399 54.3668C895.399 54.3626 895.399 54.3584 895.399 54.3543C895.399 54.3501 895.399 54.3459 895.399 54.3417C895.399 54.3375 895.399 54.3334 895.399 54.3292C895.399 54.325 895.399 54.3209 895.399 54.3167C895.399 54.3125 895.399 54.3083 895.399 54.3042C895.399 54.3 895.399 54.2958 895.399 54.2917C895.399 54.2875 895.399 54.2833 895.399 54.2792C895.399 54.275 895.399 54.2708 895.399 54.2667C895.399 54.2625 895.399 54.2583 895.399 54.2542C895.399 54.25 895.399 54.2459 895.399 54.2417C895.399 54.2375 895.399 54.2334 895.399 54.2292C895.399 54.2251 895.399 54.2209 895.399 54.2167C895.399 54.2126 895.399 54.2084 895.399 54.2043C895.399 54.2001 895.399 54.196 895.399 54.1918C895.399 54.1877 895.399 54.1835 895.399 54.1794C895.399 54.1752 895.399 54.1711 895.399 54.1669C895.399 54.1628 895.399 54.1586 895.399 54.1545C895.399 54.1503 895.399 54.1462 895.399 54.142C895.399 54.1379 895.399 54.1337 895.399 54.1296C895.399 54.1255 895.399 54.1213 895.399 54.1172C895.399 54.113 895.399 54.1089 895.399 54.1048C895.399 54.1006 895.399 54.0965 895.399 54.0923C895.399 54.0882 895.399 54.0841 895.399 54.0799C895.399 54.0758 895.399 54.0717 895.399 54.0675C895.399 54.0634 895.399 54.0593 895.399 54.0551C895.399 54.051 895.399 54.0469 895.399 54.0427C895.399 54.0386 895.399 54.0345 895.399 54.0303C895.399 54.0262 895.399 54.0221 895.399 54.018C895.399 54.0138 895.399 54.0097 895.399 54.0056C895.399 54.0015 895.399 53.9973 895.399 53.9932C895.399 53.9891 895.399 53.985 895.399 53.9809C895.399 53.9767 895.399 53.9726 895.399 53.9685C895.399 53.9644 895.399 53.9603 895.399 53.9561C895.399 53.952 895.399 53.9479 895.399 53.9438C895.399 53.9397 895.399 53.9356 895.399 53.9315C895.399 53.9273 895.399 53.9232 895.399 53.9191C895.399 53.915 895.399 53.9109 895.399 53.9068C895.399 53.9027 895.399 53.8986 895.399 53.8945C895.399 53.8904 895.399 53.8863 895.399 53.8822C895.399 53.8781 895.399 53.8739 895.399 53.8698C895.399 53.8657 895.399 53.8616 895.399 53.8575C895.399 53.8534 895.399 53.8493 895.399 53.8452C895.399 53.8411 895.399 53.837 895.399 53.8329C895.399 53.8288 895.399 53.8247 895.399 53.8206C895.399 53.8166 895.399 53.8125 895.399 53.8084C895.399 53.8043 895.399 53.8002 895.399 53.7961C895.399 53.792 895.399 53.7879 895.399 53.7838C895.399 53.7797 895.399 53.7756 895.399 53.7716C895.399 53.7675 895.399 53.7634 895.399 53.7593C895.399 53.7552 895.399 53.7511 895.399 53.747C895.399 53.743 895.399 53.7389 895.399 53.7348C895.399 53.7307 895.399 53.7266 895.399 53.7225C895.399 53.7185 895.399 53.7144 895.399 53.7103C895.399 53.7062 895.399 53.7021 895.399 53.6981C895.399 53.694 895.399 53.6899 895.399 53.6858C895.399 53.6818 895.399 53.6777 895.399 53.6736C895.399 53.6696 895.399 53.6655 895.399 53.6614C895.399 53.6573 895.399 53.6533 895.399 53.6492C895.399 53.6451 895.399 53.6411 895.399 53.637C895.399 53.6329 895.399 53.6289 895.399 53.6248C895.399 53.6207 895.399 53.6167 895.399 53.6126C895.399 53.6085 895.399 53.6045 895.399 53.6004C895.399 53.5964 895.399 53.5923 895.399 53.5882C895.399 53.5842 895.399 53.5801 895.399 53.5761C895.399 53.572 895.399 53.568 895.399 53.5639C895.399 53.5598 895.399 53.5558 895.399 53.5517C895.399 53.5477 895.399 53.5436 895.399 53.5396C895.399 53.5355 895.399 53.5315 895.399 53.5274C895.399 53.5234 895.399 53.5193 895.399 53.5153C895.399 53.5112 895.399 53.5072 895.399 53.5031C895.399 53.4991 895.399 53.495 895.399 53.491C895.399 53.487 895.399 53.4829 895.399 53.4789C895.399 53.4748 895.399 53.4708 895.399 53.4668C895.399 53.4627 895.399 53.4587 895.399 53.4546C895.399 53.4506 895.399 53.4466 895.399 53.4425C895.399 53.4385 895.399 53.4344 895.399 53.4304C895.399 53.4264 895.399 53.4223 895.399 53.4183C895.399 53.4143 895.399 53.4102 895.399 53.4062C895.399 53.4022 895.399 53.3982 895.399 53.3941C895.399 53.3901 895.399 53.3861 895.399 53.382C895.399 53.378 895.399 53.374 895.399 53.37C895.399 53.3659 895.399 53.3619 895.399 53.3579C895.399 53.3539 895.399 53.3499 895.399 53.3458C895.399 53.3418 895.399 53.3378 895.399 53.3338C895.399 53.3298 895.399 53.3257 895.399 53.3217C895.399 53.3177 895.399 53.3137 895.399 53.3097C895.399 53.3057 895.399 53.3016 895.399 53.2976C895.399 53.2936 895.399 53.2896 895.399 53.2856C895.399 53.2816 895.399 53.2776 895.399 53.2736C895.399 53.2695 895.399 53.2655 895.399 53.2615C895.399 53.2575 895.399 53.2535 895.399 53.2495C895.399 53.2455 895.399 53.2415 895.399 53.2375C895.399 53.2335 895.399 53.2295 895.399 53.2255C895.399 53.2215 895.399 53.2175 895.399 53.2135C895.399 53.2095 895.399 53.2055 895.399 53.2015C895.399 53.1975 895.399 53.1935 895.399 53.1895C895.399 53.1855 895.399 53.1815 895.399 53.1775C895.399 53.1735 895.399 53.1695 895.399 53.1655C895.399 53.1615 895.399 53.1575 895.399 53.1536C895.399 53.1496 895.399 53.1456 895.399 53.1416C895.399 53.1376 895.399 53.1336 895.399 53.1296C895.399 53.1256 895.399 53.1217 895.399 53.1177C895.399 53.1137 895.399 53.1097 895.399 53.1057C895.399 53.1017 895.399 53.0977 895.399 53.0938C895.399 53.0898 895.399 53.0858 895.399 53.0818C895.399 53.0779 895.399 53.0739 895.399 53.0699C895.399 53.0659 895.399 53.0619 895.399 53.058C895.399 53.054 895.399 53.05 895.399 53.046C895.399 53.0421 895.399 53.0381 895.399 53.0341C895.399 53.0302 895.399 53.0262 895.399 53.0222C895.399 53.0182 895.399 53.0143 895.399 53.0103C895.399 53.0063 895.399 53.0024 895.399 52.9984C895.399 52.9944 895.399 52.9905 895.399 52.9865C895.399 52.9825 895.399 52.9786 895.399 52.9746C895.399 52.9707 895.399 52.9667 895.399 52.9627C895.399 52.9588 895.399 52.9548 895.399 52.9509C895.399 52.9469 895.399 52.9429 895.399 52.939C895.399 52.935 895.399 52.9311 895.399 52.9271C895.399 52.9232 895.399 52.9192 895.399 52.9153C895.399 52.9113 895.399 52.9074 895.399 52.9034C895.399 52.8995 895.399 52.8955 895.399 52.8916C895.399 52.8876 895.399 52.8837 895.399 52.8797C895.399 52.8758 895.399 52.8718 895.399 52.8679C895.399 52.8639 895.399 52.86 895.399 52.856C895.399 52.8521 895.399 52.8482 895.399 52.8442C895.399 52.8403 895.399 52.8363 895.399 52.8324C895.399 52.8285 895.399 52.8245 895.399 52.8206C895.399 52.8167 895.399 52.8127 895.399 52.8088C895.399 52.8048 895.399 52.8009 895.399 52.797C895.399 52.793 895.399 52.7891 895.399 52.7852C895.399 52.7812 895.399 52.7773 895.399 52.7734C895.399 52.7695 895.399 52.7655 895.399 52.7616C895.399 52.7577 895.399 52.7538 895.399 52.7498C895.399 52.7459 895.399 52.742 895.399 52.7381C895.399 52.7341 895.399 52.7302 895.399 52.7263C895.399 52.7224 895.399 52.7184 895.399 52.7145C895.399 52.7106 895.399 52.7067 895.399 52.7028C895.399 52.6988 895.399 52.6949 895.399 52.691C895.399 52.6871 895.399 52.6832 895.399 52.6793C895.399 52.6754 895.399 52.6714 895.399 52.6675C895.399 52.6636 895.399 52.6597 895.399 52.6558C895.399 52.6519 895.399 52.648 895.399 52.6441C895.399 52.6402 895.399 52.6362 895.399 52.6323C895.399 52.6284 895.399 52.6245 895.399 52.6206C895.399 52.6167 895.399 52.6128 895.399 52.6089C895.399 52.605 895.399 52.6011 895.399 52.5972C895.399 52.5933 895.399 52.5894 895.399 52.5855C895.399 52.5816 895.399 52.5777 895.399 52.5738C895.399 52.5699 895.399 52.566 895.399 52.5621C895.399 52.5582 895.399 52.5543 895.399 52.5504C895.399 52.5465 895.399 52.5427 895.399 52.5388C895.399 52.5349 895.399 52.531 895.399 52.5271C895.399 52.5232 895.399 52.5193 895.399 52.5154C895.399 52.5115 895.399 52.5077 895.399 52.5038C895.399 52.4999 895.399 52.496 895.399 52.4921C895.399 52.4882 895.399 52.4843 895.399 52.4805C895.399 52.4766 895.399 52.4727 895.399 52.4688C895.399 52.4649 895.399 52.4611 895.399 52.4572C895.399 52.4533 895.399 52.4494 895.399 52.4456C895.399 52.4417 895.399 52.4378 895.399 52.4339C895.399 52.4301 895.399 52.4262 895.399 52.4223C895.399 52.4184 895.399 52.4146 895.399 52.4107C895.399 52.4068 895.399 52.403 895.399 52.3991C895.399 52.3952 895.399 52.3913 895.399 52.3875C895.399 52.3836 895.399 52.3798 895.399 52.3759C895.399 52.372 895.399 52.3682 895.399 52.3643C895.399 52.3604 895.399 52.3566 895.399 52.3527C895.399 52.3488 895.399 52.345 895.399 52.3411C895.399 52.3373 895.399 52.3334 895.399 52.3296C895.399 52.3257 895.399 52.3218 895.399 52.318C895.399 52.3141 895.399 52.3103 895.399 52.3064C895.399 52.3026 895.399 52.2987 895.399 52.2949C895.399 52.291 895.399 52.2872 895.399 52.2833C895.399 52.2795 895.399 52.2756 895.399 52.2718C895.399 52.2679 895.399 52.2641 895.399 52.2602C895.399 52.2564 895.399 52.2525 895.399 52.2487C895.399 52.2449 895.399 52.241 895.399 52.2372C895.399 52.2333 895.399 52.2295 895.399 52.2256C895.399 52.2218 895.399 52.218 895.399 52.2141C895.399 52.2103 895.399 52.2065 895.399 52.2026C895.399 52.1988 895.399 52.1949 895.399 52.1911C895.399 52.1873 895.399 52.1834 895.399 52.1796C895.399 52.1758 895.399 52.172 895.399 52.1681C895.399 52.1643 895.399 52.1605 895.399 52.1566C895.399 52.1528 895.399 52.149 895.399 52.1451C895.399 52.1413 895.399 52.1375 895.399 52.1337C895.399 52.1299 895.399 52.126 895.399 52.1222C895.399 52.1184 895.399 52.1146 895.399 52.1107C895.399 52.1069 895.399 52.1031 895.399 52.0993C895.399 52.0955 895.399 52.0916 895.399 52.0878C895.399 52.084 895.399 52.0802 895.399 52.0764C895.399 52.0726 895.399 52.0687 895.399 52.0649C895.399 52.0611 895.399 52.0573 895.399 52.0535C895.399 52.0497 895.399 52.0459 895.399 52.0421C895.399 52.0383 895.399 52.0344 895.399 52.0306C895.399 52.0268 895.399 52.023 895.399 52.0192C895.399 52.0154 895.399 52.0116 895.399 52.0078C895.399 52.004 895.399 52.0002 895.399 51.9964C895.399 51.9926 895.399 51.9888 895.399 51.985C895.399 51.9812 895.399 51.9774 895.399 51.9736C895.399 51.9698 895.399 51.966 895.399 51.9622C895.399 51.9584 895.399 51.9546 895.399 51.9508C895.399 51.947 895.399 51.9432 895.399 51.9394C895.399 51.9357 895.399 51.9319 895.399 51.9281C895.399 51.9243 895.399 51.9205 895.399 51.9167C895.399 51.9129 895.399 51.9091 895.399 51.9053C895.399 51.9016 895.399 51.8978 895.399 51.894C895.399 51.8902 895.399 51.8864 895.399 51.8826C895.399 51.8789 895.399 51.8751 895.399 51.8713C895.399 51.8675 895.399 51.8637 895.399 51.8599C895.399 51.8562 895.399 51.8524 895.399 51.8486C895.399 51.8448 895.399 51.8411 895.399 51.8373C895.399 51.8335 895.399 51.8297 895.399 51.826C895.399 51.8222 895.399 51.8184 895.399 51.8147C895.399 51.8109 895.399 51.8071 895.399 51.8033C895.399 51.7996 895.399 51.7958 895.399 51.792C895.399 51.7883 895.399 51.7845 895.399 51.7807C895.399 51.777 895.399 51.7732 895.399 51.7694C895.399 51.7657 895.399 51.7619 895.399 51.7582C895.399 51.7544 895.399 51.7506 895.399 51.7469C895.399 51.7431 895.399 51.7393 895.399 51.7356C895.399 51.7318 895.399 51.7281 895.399 51.7243C895.399 51.7206 895.399 51.7168 895.399 51.7131C895.399 51.7093 895.399 51.7056 895.399 51.7018C895.399 51.698 895.399 51.6943 895.399 51.6905C895.399 51.6868 895.399 51.683 895.399 51.6793C895.399 51.6756 895.399 51.6718 895.399 51.6681C895.399 51.6643 895.399 51.6606 895.399 51.6568C895.399 51.6531 895.399 51.6493 895.399 51.6456C895.399 51.6418 895.399 51.6381 895.399 51.6344C895.399 51.6306 895.399 51.6269 895.399 51.6231C895.399 51.6194 895.399 51.6157 895.399 51.6119C895.399 51.6082 895.399 51.6045 895.399 51.6007C895.399 51.597 895.399 51.5933 895.399 51.5895C895.399 51.5858 895.399 51.5821 895.399 51.5783C895.399 51.5746 895.399 51.5709 895.399 51.5671C895.399 51.5634 895.399 51.5597 895.399 51.5559C895.399 51.5522 895.399 51.5485 895.399 51.5448C895.399 51.541 895.399 51.5373 895.399 51.5336C895.399 51.5299 895.399 51.5262 895.399 51.5224C895.399 51.5187 895.399 51.515 895.399 51.5113C895.399 51.5075 895.399 51.5038 895.399 51.5001C895.399 51.4964 895.399 51.4927 895.399 51.489C895.399 51.4852 895.399 51.4815 895.399 51.4778C895.399 51.4741 895.399 51.4704 895.399 51.4667C895.399 51.463 895.399 51.4593 895.399 51.4555C895.399 51.4518 895.399 51.4481 895.399 51.4444C895.399 51.4407 895.399 51.437 895.399 51.4333C895.399 51.4296 895.399 51.4259 895.399 51.4222C895.399 51.4185 895.399 51.4148 895.399 51.4111C895.399 51.4074 895.399 51.4037 895.399 51.4C895.399 51.3963 895.399 51.3926 895.399 51.3889C895.399 51.3852 895.399 51.3815 895.399 51.3778C895.399 51.3741 895.399 51.3704 895.399 51.3667C895.399 51.363 895.399 51.3593 895.399 51.3556C895.399 51.3519 895.399 51.3482 895.399 51.3445C895.399 51.3408 895.399 51.3371 895.399 51.3335C895.399 51.3298 895.399 51.3261 895.399 51.3224C895.399 51.3187 895.399 51.315 895.399 51.3113C895.399 51.3076 895.399 51.304 895.399 51.3003C895.399 51.2966 895.399 51.2929 895.399 51.2892C895.399 51.2855 895.399 51.2819 895.399 51.2782C895.399 51.2745 895.399 51.2708 895.399 51.2672C895.399 51.2635 895.399 51.2598 895.399 51.2561C895.399 51.2524 895.399 51.2488 895.399 51.2451C895.399 51.2414 895.399 51.2377 895.399 51.2341C895.399 51.2304 895.399 51.2267 895.399 51.2231C895.399 51.2194 895.399 51.2157 895.399 51.2121C895.399 51.2084 895.399 51.2047 895.399 51.2011C895.399 51.1974 895.399 51.1937 895.399 51.1901C895.399 51.1864 895.399 51.1827 895.399 51.1791C895.399 51.1754 895.399 51.1717 895.399 51.1681C895.399 51.1644 895.399 51.1608 895.399 51.1571C895.399 51.1534 895.399 51.1498 895.399 51.1461C895.399 51.1425 895.399 51.1388 895.399 51.1352C895.399 51.1315 895.399 51.1279 895.399 51.1242C895.399 51.1206 895.399 51.1169 895.399 51.1132C895.399 51.1096 895.399 51.1059 895.399 51.1023C895.399 51.0986 895.399 51.095 895.399 51.0914C895.399 51.0877 895.399 51.0841 895.399 51.0804C895.399 51.0768 895.399 51.0731 895.399 51.0695C895.399 51.0658 895.399 51.0622 895.399 51.0585C895.399 51.0549 895.399 51.0513 895.399 51.0476C895.399 51.044 895.399 51.0404 895.399 51.0367C895.399 51.0331 895.399 51.0294 895.399 51.0258C895.399 51.0222 895.399 51.0185 895.399 51.0149C895.399 51.0113 895.399 51.0076 895.399 51.004C895.399 51.0004 895.399 50.9967 895.399 50.9931C895.399 50.9895 895.399 50.9858 895.399 50.9822C895.399 50.9786 895.399 50.975 895.399 50.9713C895.399 50.9677 895.399 50.9641 895.399 50.9605C895.399 50.9568 895.399 50.9532 895.399 50.9496C895.399 50.946 895.399 50.9424 895.399 50.9387C895.399 50.9351 895.399 50.9315 895.399 50.9279C895.399 50.9242 895.399 50.9206 895.399 50.917C895.399 50.9134 895.399 50.9098 895.399 50.9062C895.399 50.9026 895.399 50.8989 895.399 50.8953C895.399 50.8917 895.399 50.8881 895.399 50.8845C895.399 50.8809 895.399 50.8773 895.399 50.8737C895.399 50.8701 895.399 50.8664 895.399 50.8628C895.399 50.8592 895.399 50.8556 895.399 50.852C895.399 50.8484 895.399 50.8448 895.399 50.8412C895.399 50.8376 895.399 50.834 895.399 50.8304C895.399 50.8268 895.399 50.8232 895.399 50.8196C895.399 50.816 895.399 50.8124 895.399 50.8088C895.399 50.8052 895.399 50.8016 895.399 50.798C895.399 50.7944 895.399 50.7908 895.399 50.7872C895.399 50.7836 895.399 50.78 895.399 50.7765C895.399 50.7729 895.399 50.7693 895.399 50.7657C895.399 50.7621 895.399 50.7585 895.399 50.7549C895.399 50.7513 895.399 50.7477 895.399 50.7441C895.399 50.7406 895.399 50.737 895.399 50.7334C895.399 50.7298 895.399 50.7262 895.399 50.7226C895.399 50.7191 895.399 50.7155 895.399 50.7119C895.399 50.7083 895.399 50.7047 895.399 50.7012C895.399 50.6976 895.399 50.694 895.399 50.6904C895.399 50.6869 895.399 50.6833 895.399 50.6797C895.399 50.6761 895.399 50.6725 895.399 50.669C895.399 50.6654 895.399 50.6618 895.399 50.6583C895.399 50.6547 895.399 50.6511 895.399 50.6476C895.399 50.644 895.399 50.6404 895.399 50.6368C895.399 50.6333 895.399 50.6297 895.399 50.6261C895.399 50.6226 895.399 50.619 895.399 50.6155C895.399 50.6119 895.399 50.6083 895.399 50.6048C895.399 50.6012 895.399 50.5976 895.399 50.5941C895.399 50.5905 895.399 50.587 895.399 50.5834C895.399 50.5799 895.399 50.5763 895.399 50.5727C895.399 50.5692 895.399 50.5656 895.399 50.5621C895.399 50.5585 895.399 50.555 895.399 50.5514C895.399 50.5479 895.399 50.5443 895.399 50.5408C895.399 50.5372 895.399 50.5337 895.399 50.5301C895.399 50.5266 895.399 50.523 895.399 50.5195C895.399 50.5159 895.399 50.5124 895.399 50.5088C895.399 50.5053 895.399 50.5018 895.399 50.4982C895.399 50.4947 895.399 50.4911 895.399 50.4876C895.399 50.484 895.399 50.4805 895.399 50.477C895.399 50.4734 895.399 50.4699 895.399 50.4664C895.399 50.4628 895.399 50.4593 895.399 50.4557C895.399 50.4522 895.399 50.4487 895.399 50.4452C895.399 50.4416 895.399 50.4381 895.399 50.4346C895.399 50.431 895.399 50.4275 895.399 50.424C895.399 50.4204 895.399 50.4169 895.399 50.4134C895.399 50.4099 895.399 50.4063 895.399 50.4028C895.399 50.3993 895.399 50.3958 895.399 50.3922C895.399 50.3887 895.399 50.3852 895.399 50.3817C895.399 50.3781 895.399 50.3746 895.399 50.3711C895.399 50.3676 895.399 50.3641 895.399 50.3605C895.399 50.357 895.399 50.3535 895.399 50.35H885.399C885.399 50.3535 885.399 50.357 885.399 50.3605C885.399 50.3641 885.399 50.3676 885.399 50.3711C885.399 50.3746 885.399 50.3781 885.399 50.3817C885.399 50.3852 885.399 50.3887 885.399 50.3922C885.399 50.3958 885.399 50.3993 885.399 50.4028C885.399 50.4063 885.399 50.4099 885.399 50.4134C885.399 50.4169 885.399 50.4204 885.399 50.424C885.399 50.4275 885.399 50.431 885.399 50.4346C885.399 50.4381 885.399 50.4416 885.399 50.4452C885.399 50.4487 885.399 50.4522 885.399 50.4557C885.399 50.4593 885.399 50.4628 885.399 50.4664C885.399 50.4699 885.399 50.4734 885.399 50.477C885.399 50.4805 885.399 50.484 885.399 50.4876C885.399 50.4911 885.399 50.4947 885.399 50.4982C885.399 50.5018 885.399 50.5053 885.399 50.5088C885.399 50.5124 885.399 50.5159 885.399 50.5195C885.399 50.523 885.399 50.5266 885.399 50.5301C885.399 50.5337 885.399 50.5372 885.399 50.5408C885.399 50.5443 885.399 50.5479 885.399 50.5514C885.399 50.555 885.399 50.5585 885.399 50.5621C885.399 50.5656 885.399 50.5692 885.399 50.5727C885.399 50.5763 885.399 50.5799 885.399 50.5834C885.399 50.587 885.399 50.5905 885.399 50.5941C885.399 50.5976 885.399 50.6012 885.399 50.6048C885.399 50.6083 885.399 50.6119 885.399 50.6155C885.399 50.619 885.399 50.6226 885.399 50.6261C885.399 50.6297 885.399 50.6333 885.399 50.6368C885.399 50.6404 885.399 50.644 885.399 50.6476C885.399 50.6511 885.399 50.6547 885.399 50.6583C885.399 50.6618 885.399 50.6654 885.399 50.669C885.399 50.6725 885.399 50.6761 885.399 50.6797C885.399 50.6833 885.399 50.6869 885.399 50.6904C885.399 50.694 885.399 50.6976 885.399 50.7012C885.399 50.7047 885.399 50.7083 885.399 50.7119C885.399 50.7155 885.399 50.7191 885.399 50.7226C885.399 50.7262 885.399 50.7298 885.399 50.7334C885.399 50.737 885.399 50.7406 885.399 50.7441C885.399 50.7477 885.399 50.7513 885.399 50.7549C885.399 50.7585 885.399 50.7621 885.399 50.7657C885.399 50.7693 885.399 50.7729 885.399 50.7765C885.399 50.78 885.399 50.7836 885.399 50.7872C885.399 50.7908 885.399 50.7944 885.399 50.798C885.399 50.8016 885.399 50.8052 885.399 50.8088C885.399 50.8124 885.399 50.816 885.399 50.8196C885.399 50.8232 885.399 50.8268 885.399 50.8304C885.399 50.834 885.399 50.8376 885.399 50.8412C885.399 50.8448 885.399 50.8484 885.399 50.852C885.399 50.8556 885.399 50.8592 885.399 50.8628C885.399 50.8664 885.399 50.8701 885.399 50.8737C885.399 50.8773 885.399 50.8809 885.399 50.8845C885.399 50.8881 885.399 50.8917 885.399 50.8953C885.399 50.8989 885.399 50.9026 885.399 50.9062C885.399 50.9098 885.399 50.9134 885.399 50.917C885.399 50.9206 885.399 50.9242 885.399 50.9279C885.399 50.9315 885.399 50.9351 885.399 50.9387C885.399 50.9424 885.399 50.946 885.399 50.9496C885.399 50.9532 885.399 50.9568 885.399 50.9605C885.399 50.9641 885.399 50.9677 885.399 50.9713C885.399 50.975 885.399 50.9786 885.399 50.9822C885.399 50.9858 885.399 50.9895 885.399 50.9931C885.399 50.9967 885.399 51.0004 885.399 51.004C885.399 51.0076 885.399 51.0113 885.399 51.0149C885.399 51.0185 885.399 51.0222 885.399 51.0258C885.399 51.0294 885.399 51.0331 885.399 51.0367C885.399 51.0404 885.399 51.044 885.399 51.0476C885.399 51.0513 885.399 51.0549 885.399 51.0585C885.399 51.0622 885.399 51.0658 885.399 51.0695C885.399 51.0731 885.399 51.0768 885.399 51.0804C885.399 51.0841 885.399 51.0877 885.399 51.0914C885.399 51.095 885.399 51.0986 885.399 51.1023C885.399 51.1059 885.399 51.1096 885.399 51.1132C885.399 51.1169 885.399 51.1206 885.399 51.1242C885.399 51.1279 885.399 51.1315 885.399 51.1352C885.399 51.1388 885.399 51.1425 885.399 51.1461C885.399 51.1498 885.399 51.1534 885.399 51.1571C885.399 51.1608 885.399 51.1644 885.399 51.1681C885.399 51.1717 885.399 51.1754 885.399 51.1791C885.399 51.1827 885.399 51.1864 885.399 51.1901C885.399 51.1937 885.399 51.1974 885.399 51.2011C885.399 51.2047 885.399 51.2084 885.399 51.2121C885.399 51.2157 885.399 51.2194 885.399 51.2231C885.399 51.2267 885.399 51.2304 885.399 51.2341C885.399 51.2377 885.399 51.2414 885.399 51.2451C885.399 51.2488 885.399 51.2524 885.399 51.2561C885.399 51.2598 885.399 51.2635 885.399 51.2672C885.399 51.2708 885.399 51.2745 885.399 51.2782C885.399 51.2819 885.399 51.2855 885.399 51.2892C885.399 51.2929 885.399 51.2966 885.399 51.3003C885.399 51.304 885.399 51.3076 885.399 51.3113C885.399 51.315 885.399 51.3187 885.399 51.3224C885.399 51.3261 885.399 51.3298 885.399 51.3335C885.399 51.3371 885.399 51.3408 885.399 51.3445C885.399 51.3482 885.399 51.3519 885.399 51.3556C885.399 51.3593 885.399 51.363 885.399 51.3667C885.399 51.3704 885.399 51.3741 885.399 51.3778C885.399 51.3815 885.399 51.3852 885.399 51.3889C885.399 51.3926 885.399 51.3963 885.399 51.4C885.399 51.4037 885.399 51.4074 885.399 51.4111C885.399 51.4148 885.399 51.4185 885.399 51.4222C885.399 51.4259 885.399 51.4296 885.399 51.4333C885.399 51.437 885.399 51.4407 885.399 51.4444C885.399 51.4481 885.399 51.4518 885.399 51.4555C885.399 51.4593 885.399 51.463 885.399 51.4667C885.399 51.4704 885.399 51.4741 885.399 51.4778C885.399 51.4815 885.399 51.4852 885.399 51.489C885.399 51.4927 885.399 51.4964 885.399 51.5001C885.399 51.5038 885.399 51.5075 885.399 51.5113C885.399 51.515 885.399 51.5187 885.399 51.5224C885.399 51.5262 885.399 51.5299 885.399 51.5336C885.399 51.5373 885.399 51.541 885.399 51.5448C885.399 51.5485 885.399 51.5522 885.399 51.5559C885.399 51.5597 885.399 51.5634 885.399 51.5671C885.399 51.5709 885.399 51.5746 885.399 51.5783C885.399 51.5821 885.399 51.5858 885.399 51.5895C885.399 51.5933 885.399 51.597 885.399 51.6007C885.399 51.6045 885.399 51.6082 885.399 51.6119C885.399 51.6157 885.399 51.6194 885.399 51.6231C885.399 51.6269 885.399 51.6306 885.399 51.6344C885.399 51.6381 885.399 51.6418 885.399 51.6456C885.399 51.6493 885.399 51.6531 885.399 51.6568C885.399 51.6606 885.399 51.6643 885.399 51.6681C885.399 51.6718 885.399 51.6756 885.399 51.6793C885.399 51.683 885.399 51.6868 885.399 51.6905C885.399 51.6943 885.399 51.698 885.399 51.7018C885.399 51.7056 885.399 51.7093 885.399 51.7131C885.399 51.7168 885.399 51.7206 885.399 51.7243C885.399 51.7281 885.399 51.7318 885.399 51.7356C885.399 51.7393 885.399 51.7431 885.399 51.7469C885.399 51.7506 885.399 51.7544 885.399 51.7582C885.399 51.7619 885.399 51.7657 885.399 51.7694C885.399 51.7732 885.399 51.777 885.399 51.7807C885.399 51.7845 885.399 51.7883 885.399 51.792C885.399 51.7958 885.399 51.7996 885.399 51.8033C885.399 51.8071 885.399 51.8109 885.399 51.8147C885.399 51.8184 885.399 51.8222 885.399 51.826C885.399 51.8297 885.399 51.8335 885.399 51.8373C885.399 51.8411 885.399 51.8448 885.399 51.8486C885.399 51.8524 885.399 51.8562 885.399 51.8599C885.399 51.8637 885.399 51.8675 885.399 51.8713C885.399 51.8751 885.399 51.8789 885.399 51.8826C885.399 51.8864 885.399 51.8902 885.399 51.894C885.399 51.8978 885.399 51.9016 885.399 51.9053C885.399 51.9091 885.399 51.9129 885.399 51.9167C885.399 51.9205 885.399 51.9243 885.399 51.9281C885.399 51.9319 885.399 51.9357 885.399 51.9394C885.399 51.9432 885.399 51.947 885.399 51.9508C885.399 51.9546 885.399 51.9584 885.399 51.9622C885.399 51.966 885.399 51.9698 885.399 51.9736C885.399 51.9774 885.399 51.9812 885.399 51.985C885.399 51.9888 885.399 51.9926 885.399 51.9964C885.399 52.0002 885.399 52.004 885.399 52.0078C885.399 52.0116 885.399 52.0154 885.399 52.0192C885.399 52.023 885.399 52.0268 885.399 52.0306C885.399 52.0344 885.399 52.0383 885.399 52.0421C885.399 52.0459 885.399 52.0497 885.399 52.0535C885.399 52.0573 885.399 52.0611 885.399 52.0649C885.399 52.0687 885.399 52.0726 885.399 52.0764C885.399 52.0802 885.399 52.084 885.399 52.0878C885.399 52.0916 885.399 52.0955 885.399 52.0993C885.399 52.1031 885.399 52.1069 885.399 52.1107C885.399 52.1146 885.399 52.1184 885.399 52.1222C885.399 52.126 885.399 52.1299 885.399 52.1337C885.399 52.1375 885.399 52.1413 885.399 52.1451C885.399 52.149 885.399 52.1528 885.399 52.1566C885.399 52.1605 885.399 52.1643 885.399 52.1681C885.399 52.172 885.399 52.1758 885.399 52.1796C885.399 52.1834 885.399 52.1873 885.399 52.1911C885.399 52.1949 885.399 52.1988 885.399 52.2026C885.399 52.2065 885.399 52.2103 885.399 52.2141C885.399 52.218 885.399 52.2218 885.399 52.2256C885.399 52.2295 885.399 52.2333 885.399 52.2372C885.399 52.241 885.399 52.2449 885.399 52.2487C885.399 52.2525 885.399 52.2564 885.399 52.2602C885.399 52.2641 885.399 52.2679 885.399 52.2718C885.399 52.2756 885.399 52.2795 885.399 52.2833C885.399 52.2872 885.399 52.291 885.399 52.2949C885.399 52.2987 885.399 52.3026 885.399 52.3064C885.399 52.3103 885.399 52.3141 885.399 52.318C885.399 52.3218 885.399 52.3257 885.399 52.3296C885.399 52.3334 885.399 52.3373 885.399 52.3411C885.399 52.345 885.399 52.3488 885.399 52.3527C885.399 52.3566 885.399 52.3604 885.399 52.3643C885.399 52.3682 885.399 52.372 885.399 52.3759C885.399 52.3798 885.399 52.3836 885.399 52.3875C885.399 52.3913 885.399 52.3952 885.399 52.3991C885.399 52.403 885.399 52.4068 885.399 52.4107C885.399 52.4146 885.399 52.4184 885.399 52.4223C885.399 52.4262 885.399 52.4301 885.399 52.4339C885.399 52.4378 885.399 52.4417 885.399 52.4456C885.399 52.4494 885.399 52.4533 885.399 52.4572C885.399 52.4611 885.399 52.4649 885.399 52.4688C885.399 52.4727 885.399 52.4766 885.399 52.4805C885.399 52.4843 885.399 52.4882 885.399 52.4921C885.399 52.496 885.399 52.4999 885.399 52.5038C885.399 52.5077 885.399 52.5115 885.399 52.5154C885.399 52.5193 885.399 52.5232 885.399 52.5271C885.399 52.531 885.399 52.5349 885.399 52.5388C885.399 52.5427 885.399 52.5465 885.399 52.5504C885.399 52.5543 885.399 52.5582 885.399 52.5621C885.399 52.566 885.399 52.5699 885.399 52.5738C885.399 52.5777 885.399 52.5816 885.399 52.5855C885.399 52.5894 885.399 52.5933 885.399 52.5972C885.399 52.6011 885.399 52.605 885.399 52.6089C885.399 52.6128 885.399 52.6167 885.399 52.6206C885.399 52.6245 885.399 52.6284 885.399 52.6323C885.399 52.6362 885.399 52.6402 885.399 52.6441C885.399 52.648 885.399 52.6519 885.399 52.6558C885.399 52.6597 885.399 52.6636 885.399 52.6675C885.399 52.6714 885.399 52.6754 885.399 52.6793C885.399 52.6832 885.399 52.6871 885.399 52.691C885.399 52.6949 885.399 52.6988 885.399 52.7028C885.399 52.7067 885.399 52.7106 885.399 52.7145C885.399 52.7184 885.399 52.7224 885.399 52.7263C885.399 52.7302 885.399 52.7341 885.399 52.7381C885.399 52.742 885.399 52.7459 885.399 52.7498C885.399 52.7538 885.399 52.7577 885.399 52.7616C885.399 52.7655 885.399 52.7695 885.399 52.7734C885.399 52.7773 885.399 52.7812 885.399 52.7852C885.399 52.7891 885.399 52.793 885.399 52.797C885.399 52.8009 885.399 52.8048 885.399 52.8088C885.399 52.8127 885.399 52.8167 885.399 52.8206C885.399 52.8245 885.399 52.8285 885.399 52.8324C885.399 52.8363 885.399 52.8403 885.399 52.8442C885.399 52.8482 885.399 52.8521 885.399 52.856C885.399 52.86 885.399 52.8639 885.399 52.8679C885.399 52.8718 885.399 52.8758 885.399 52.8797C885.399 52.8837 885.399 52.8876 885.399 52.8916C885.399 52.8955 885.399 52.8995 885.399 52.9034C885.399 52.9074 885.399 52.9113 885.399 52.9153C885.399 52.9192 885.399 52.9232 885.399 52.9271C885.399 52.9311 885.399 52.935 885.399 52.939C885.399 52.9429 885.399 52.9469 885.399 52.9509C885.399 52.9548 885.399 52.9588 885.399 52.9627C885.399 52.9667 885.399 52.9707 885.399 52.9746C885.399 52.9786 885.399 52.9825 885.399 52.9865C885.399 52.9905 885.399 52.9944 885.399 52.9984C885.399 53.0024 885.399 53.0063 885.399 53.0103C885.399 53.0143 885.399 53.0182 885.399 53.0222C885.399 53.0262 885.399 53.0302 885.399 53.0341C885.399 53.0381 885.399 53.0421 885.399 53.046C885.399 53.05 885.399 53.054 885.399 53.058C885.399 53.0619 885.399 53.0659 885.399 53.0699C885.399 53.0739 885.399 53.0779 885.399 53.0818C885.399 53.0858 885.399 53.0898 885.399 53.0938C885.399 53.0977 885.399 53.1017 885.399 53.1057C885.399 53.1097 885.399 53.1137 885.399 53.1177C885.399 53.1217 885.399 53.1256 885.399 53.1296C885.399 53.1336 885.399 53.1376 885.399 53.1416C885.399 53.1456 885.399 53.1496 885.399 53.1536C885.399 53.1575 885.399 53.1615 885.399 53.1655C885.399 53.1695 885.399 53.1735 885.399 53.1775C885.399 53.1815 885.399 53.1855 885.399 53.1895C885.399 53.1935 885.399 53.1975 885.399 53.2015C885.399 53.2055 885.399 53.2095 885.399 53.2135C885.399 53.2175 885.399 53.2215 885.399 53.2255C885.399 53.2295 885.399 53.2335 885.399 53.2375C885.399 53.2415 885.399 53.2455 885.399 53.2495C885.399 53.2535 885.399 53.2575 885.399 53.2615C885.399 53.2655 885.399 53.2695 885.399 53.2736C885.399 53.2776 885.399 53.2816 885.399 53.2856C885.399 53.2896 885.399 53.2936 885.399 53.2976C885.399 53.3016 885.399 53.3057 885.399 53.3097C885.399 53.3137 885.399 53.3177 885.399 53.3217C885.399 53.3257 885.399 53.3298 885.399 53.3338C885.399 53.3378 885.399 53.3418 885.399 53.3458C885.399 53.3499 885.399 53.3539 885.399 53.3579C885.399 53.3619 885.399 53.3659 885.399 53.37C885.399 53.374 885.399 53.378 885.399 53.382C885.399 53.3861 885.399 53.3901 885.399 53.3941C885.399 53.3982 885.399 53.4022 885.399 53.4062C885.399 53.4102 885.399 53.4143 885.399 53.4183C885.399 53.4223 885.399 53.4264 885.399 53.4304C885.399 53.4344 885.399 53.4385 885.399 53.4425C885.399 53.4466 885.399 53.4506 885.399 53.4546C885.399 53.4587 885.399 53.4627 885.399 53.4668C885.399 53.4708 885.399 53.4748 885.399 53.4789C885.399 53.4829 885.399 53.487 885.399 53.491C885.399 53.495 885.399 53.4991 885.399 53.5031C885.399 53.5072 885.399 53.5112 885.399 53.5153C885.399 53.5193 885.399 53.5234 885.399 53.5274C885.399 53.5315 885.399 53.5355 885.399 53.5396C885.399 53.5436 885.399 53.5477 885.399 53.5517C885.399 53.5558 885.399 53.5598 885.399 53.5639C885.399 53.568 885.399 53.572 885.399 53.5761C885.399 53.5801 885.399 53.5842 885.399 53.5882C885.399 53.5923 885.399 53.5964 885.399 53.6004C885.399 53.6045 885.399 53.6085 885.399 53.6126C885.399 53.6167 885.399 53.6207 885.399 53.6248C885.399 53.6289 885.399 53.6329 885.399 53.637C885.399 53.6411 885.399 53.6451 885.399 53.6492C885.399 53.6533 885.399 53.6573 885.399 53.6614C885.399 53.6655 885.399 53.6696 885.399 53.6736C885.399 53.6777 885.399 53.6818 885.399 53.6858C885.399 53.6899 885.399 53.694 885.399 53.6981C885.399 53.7021 885.399 53.7062 885.399 53.7103C885.399 53.7144 885.399 53.7185 885.399 53.7225C885.399 53.7266 885.399 53.7307 885.399 53.7348C885.399 53.7389 885.399 53.743 885.399 53.747C885.399 53.7511 885.399 53.7552 885.399 53.7593C885.399 53.7634 885.399 53.7675 885.399 53.7716C885.399 53.7756 885.399 53.7797 885.399 53.7838C885.399 53.7879 885.399 53.792 885.399 53.7961C885.399 53.8002 885.399 53.8043 885.399 53.8084C885.399 53.8125 885.399 53.8166 885.399 53.8206C885.399 53.8247 885.399 53.8288 885.399 53.8329C885.399 53.837 885.399 53.8411 885.399 53.8452C885.399 53.8493 885.399 53.8534 885.399 53.8575C885.399 53.8616 885.399 53.8657 885.399 53.8698C885.399 53.8739 885.399 53.8781 885.399 53.8822C885.399 53.8863 885.399 53.8904 885.399 53.8945C885.399 53.8986 885.399 53.9027 885.399 53.9068C885.399 53.9109 885.399 53.915 885.399 53.9191C885.399 53.9232 885.399 53.9273 885.399 53.9315C885.399 53.9356 885.399 53.9397 885.399 53.9438C885.399 53.9479 885.399 53.952 885.399 53.9561C885.399 53.9603 885.399 53.9644 885.399 53.9685C885.399 53.9726 885.399 53.9767 885.399 53.9809C885.399 53.985 885.399 53.9891 885.399 53.9932C885.399 53.9973 885.399 54.0015 885.399 54.0056C885.399 54.0097 885.399 54.0138 885.399 54.018C885.399 54.0221 885.399 54.0262 885.399 54.0303C885.399 54.0345 885.399 54.0386 885.399 54.0427C885.399 54.0469 885.399 54.051 885.399 54.0551C885.399 54.0593 885.399 54.0634 885.399 54.0675C885.399 54.0717 885.399 54.0758 885.399 54.0799C885.399 54.0841 885.399 54.0882 885.399 54.0923C885.399 54.0965 885.399 54.1006 885.399 54.1048C885.399 54.1089 885.399 54.113 885.399 54.1172C885.399 54.1213 885.399 54.1255 885.399 54.1296C885.399 54.1337 885.399 54.1379 885.399 54.142C885.399 54.1462 885.399 54.1503 885.399 54.1545C885.399 54.1586 885.399 54.1628 885.399 54.1669C885.399 54.1711 885.399 54.1752 885.399 54.1794C885.399 54.1835 885.399 54.1877 885.399 54.1918C885.399 54.196 885.399 54.2001 885.399 54.2043C885.399 54.2084 885.399 54.2126 885.399 54.2167C885.399 54.2209 885.399 54.2251 885.399 54.2292C885.399 54.2334 885.399 54.2375 885.399 54.2417C885.399 54.2459 885.399 54.25 885.399 54.2542C885.399 54.2583 885.399 54.2625 885.399 54.2667C885.399 54.2708 885.399 54.275 885.399 54.2792C885.399 54.2833 885.399 54.2875 885.399 54.2917C885.399 54.2958 885.399 54.3 885.399 54.3042C885.399 54.3083 885.399 54.3125 885.399 54.3167C885.399 54.3209 885.399 54.325 885.399 54.3292C885.399 54.3334 885.399 54.3375 885.399 54.3417C885.399 54.3459 885.399 54.3501 885.399 54.3543C885.399 54.3584 885.399 54.3626 885.399 54.3668C885.399 54.371 885.399 54.3752 885.399 54.3793C885.399 54.3835 885.399 54.3877 885.399 54.3919C885.399 54.3961 885.399 54.4002 885.399 54.4044C885.399 54.4086 885.399 54.4128 885.399 54.417C885.399 54.4212 885.399 54.4254 885.399 54.4296C885.399 54.4337 885.399 54.4379 885.399 54.4421C885.399 54.4463 885.399 54.4505 885.399 54.4547C885.399 54.4589 885.399 54.4631 885.399 54.4673C885.399 54.4715 885.399 54.4757 885.399 54.4799C885.399 54.4841 885.399 54.4883 885.399 54.4925C885.399 54.4967 885.399 54.5009 885.399 54.5051C885.399 54.5093 885.399 54.5135 885.399 54.5177C885.399 54.5219 885.399 54.5261 885.399 54.5303C885.399 54.5345 885.399 54.5387 885.399 54.5429C885.399 54.5471 885.399 54.5513 885.399 54.5555C885.399 54.5597 885.399 54.5639 885.399 54.5681C885.399 54.5723 885.399 54.5766 885.399 54.5808C885.399 54.585 885.399 54.5892 885.399 54.5934C885.399 54.5976 885.399 54.6018 885.399 54.606C885.399 54.6103 885.399 54.6145 885.399 54.6187C885.399 54.6229 885.399 54.6271 885.399 54.6314C885.399 54.6356 885.399 54.6398 885.399 54.644C885.399 54.6482 885.399 54.6525 885.399 54.6567C885.399 54.6609 885.399 54.6651 885.399 54.6694C885.399 54.6736 885.399 54.6778 885.399 54.682C885.399 54.6863 885.399 54.6905 885.399 54.6947C885.399 54.6989 885.399 54.7032 885.399 54.7074C885.399 54.7116 885.399 54.7159 885.399 54.7201C885.399 54.7243 885.399 54.7286 885.399 54.7328C885.399 54.737 885.399 54.7413 885.399 54.7455C885.399 54.7497 885.399 54.754 885.399 54.7582C885.399 54.7625 885.399 54.7667 885.399 54.7709C885.399 54.7752 885.399 54.7794 885.399 54.7837C885.399 54.7879 885.399 54.7922 885.399 54.7964C885.399 54.8006 885.399 54.8049 885.399 54.8091C885.399 54.8134 885.399 54.8176 885.399 54.8219C885.399 54.8261 885.399 54.8304 885.399 54.8346C885.399 54.8389 885.399 54.8431 885.399 54.8474C885.399 54.8516 885.399 54.8559 885.399 54.8601C885.399 54.8644 885.399 54.8686 885.399 54.8729C885.399 54.8772 885.399 54.8814 885.399 54.8857C885.399 54.8899 885.399 54.8942 885.399 54.8984C885.399 54.9027 885.399 54.907 885.399 54.9112C885.399 54.9155 885.399 54.9197 885.399 54.924C885.399 54.9283 885.399 54.9325 885.399 54.9368C885.399 54.9411 885.399 54.9453 885.399 54.9496C885.399 54.9539 885.399 54.9581 885.399 54.9624C885.399 54.9667 885.399 54.9709 885.399 54.9752C885.399 54.9795 885.399 54.9838 885.399 54.988C885.399 54.9923 885.399 54.9966 885.399 55.0008C885.399 55.0051 885.399 55.0094 885.399 55.0137C885.399 55.018 885.399 55.0222 885.399 55.0265C885.399 55.0308 885.399 55.0351 885.399 55.0393C885.399 55.0436 885.399 55.0479 885.399 55.0522C885.399 55.0565 885.399 55.0608 885.399 55.065C885.399 55.0693 885.399 55.0736 885.399 55.0779C885.399 55.0822 885.399 55.0865 885.399 55.0908C885.399 55.095 885.399 55.0993 885.399 55.1036C885.399 55.1079 885.399 55.1122 885.399 55.1165C885.399 55.1208 885.399 55.1251 885.399 55.1294C885.399 55.1337 885.399 55.138 885.399 55.1423C885.399 55.1466 885.399 55.1509 885.399 55.1552C885.399 55.1595 885.399 55.1637 885.399 55.168C885.399 55.1723 885.399 55.1767 885.399 55.181C885.399 55.1852 885.399 55.1896 885.399 55.1939C885.399 55.1982 885.399 55.2025 885.399 55.2068C885.399 55.2111 885.399 55.2154 885.399 55.2197C885.399 55.224 885.399 55.2283 885.399 55.2326C885.399 55.2369 885.399 55.2412 885.399 55.2455C885.399 55.2499 885.399 55.2542 885.399 55.2585C885.399 55.2628 885.399 55.2671 885.399 55.2714C885.399 55.2757 885.399 55.2801 885.399 55.2844C885.399 55.2887 885.399 55.293 885.399 55.2973C885.399 55.3016 885.399 55.306 885.399 55.3103C885.399 55.3146 885.399 55.3189 885.399 55.3232C885.399 55.3276 885.399 55.3319 885.399 55.3362C885.399 55.3405 885.399 55.3449 885.399 55.3492C885.399 55.3535 885.399 55.3578 885.399 55.3622C885.399 55.3665 885.399 55.3708 885.399 55.3752C885.399 55.3795 885.399 55.3838 885.399 55.3882C885.399 55.3925 885.399 55.3968 885.399 55.4012C885.399 55.4055 885.399 55.4098 885.399 55.4142C885.399 55.4185 885.399 55.4228 885.399 55.4272C885.399 55.4315 885.399 55.4358 885.399 55.4402C885.399 55.4445 885.399 55.4489 885.399 55.4532C885.399 55.4575 885.399 55.4619 885.399 55.4662C885.399 55.4706 885.399 55.4749 885.399 55.4793C885.399 55.4836 885.399 55.488 885.399 55.4923C885.399 55.4967 885.399 55.501 885.399 55.5053C885.399 55.5097 885.399 55.514 885.399 55.5184C885.399 55.5228 885.399 55.5271 885.399 55.5315C885.399 55.5358 885.399 55.5402 885.399 55.5445C885.399 55.5489 885.399 55.5532 885.399 55.5576C885.399 55.5619 885.399 55.5663 885.399 55.5707C885.399 55.575 885.399 55.5794 885.399 55.5837C885.399 55.5881 885.399 55.5925 885.399 55.5968C885.399 55.6012 885.399 55.6055 885.399 55.6099C885.399 55.6143 885.399 55.6186 885.399 55.623C885.399 55.6274 885.399 55.6317 885.399 55.6361C885.399 55.6405 885.399 55.6448 885.399 55.6492C885.399 55.6536 885.399 55.658 885.399 55.6623C885.399 55.6667 885.399 55.6711 885.399 55.6754C885.399 55.6798 885.399 55.6842 885.399 55.6886C885.399 55.6929 885.399 55.6973 885.399 55.7017C885.399 55.7061 885.399 55.7105 885.399 55.7148C885.399 55.7192 885.399 55.7236 885.399 55.728C885.399 55.7324 885.399 55.7367 885.399 55.7411C885.399 55.7455 885.399 55.7499 885.399 55.7543C885.399 55.7587 885.399 55.7631 885.399 55.7674C885.399 55.7718 885.399 55.7762 885.399 55.7806C885.399 55.785 885.399 55.7894 885.399 55.7938C885.399 55.7982 885.399 55.8026 885.399 55.807C885.399 55.8113 885.399 55.8157 885.399 55.8201C885.399 55.8245 885.399 55.8289 885.399 55.8333C885.399 55.8377 885.399 55.8421 885.399 55.8465C885.399 55.8509 885.399 55.8553 885.399 55.8597C885.399 55.8641 885.399 55.8685 885.399 55.8729C885.399 55.8773 885.399 55.8817 885.399 55.8861C885.399 55.8905 885.399 55.8949 885.399 55.8993C885.399 55.9037 885.399 55.9082 885.399 55.9126C885.399 55.917 885.399 55.9214 885.399 55.9258C885.399 55.9302 885.399 55.9346 885.399 55.939C885.399 55.9434 885.399 55.9479 885.399 55.9523C885.399 55.9567 885.399 55.9611 885.399 55.9655C885.399 55.9699 885.399 55.9743 885.399 55.9788C885.399 55.9832 885.399 55.9876 885.399 55.992C885.399 55.9964 885.399 56.0009 885.399 56.0053C885.399 56.0097 885.399 56.0141 885.399 56.0185C885.399 56.023 885.399 56.0274 885.399 56.0318C885.399 56.0362 885.399 56.0407 885.399 56.0451C885.399 56.0495 885.399 56.054 885.399 56.0584C885.399 56.0628 885.399 56.0672 885.399 56.0717C885.399 56.0761 885.399 56.0805 885.399 56.085C885.399 56.0894 885.399 56.0938 885.399 56.0983C885.399 56.1027 885.399 56.1071 885.399 56.1116C885.399 56.116 885.399 56.1205 885.399 56.1249C885.399 56.1293 885.399 56.1338 885.399 56.1382C885.399 56.1427 885.399 56.1471 885.399 56.1515C885.399 56.156 885.399 56.1604 885.399 56.1649C885.399 56.1693 885.399 56.1738 885.399 56.1782C885.399 56.1827 885.399 56.1871 885.399 56.1916C885.399 56.196 885.399 56.2004 885.399 56.2049C885.399 56.2094 885.399 56.2138 885.399 56.2183C885.399 56.2227 885.399 56.2272 885.399 56.2316C885.399 56.2361 885.399 56.2405 885.399 56.245C885.399 56.2494 885.399 56.2539 885.399 56.2583C885.399 56.2628 885.399 56.2673 885.399 56.2717C885.399 56.2762 885.399 56.2806 885.399 56.2851C885.399 56.2896 885.399 56.294 885.399 56.2985C885.399 56.303 885.399 56.3074 885.399 56.3119C885.399 56.3164 885.399 56.3208 885.399 56.3253C885.399 56.3298 885.399 56.3342 885.399 56.3387C885.399 56.3432 885.399 56.3476 885.399 56.3521C885.399 56.3566 885.399 56.361 885.399 56.3655C885.399 56.37 885.399 56.3745 885.399 56.3789C885.399 56.3834 885.399 56.3879 885.399 56.3924C885.399 56.3968 885.399 56.4013 885.399 56.4058C885.399 56.4103 885.399 56.4148 885.399 56.4192C885.399 56.4237 885.399 56.4282 885.399 56.4327C885.399 56.4372 885.399 56.4417 885.399 56.4461C885.399 56.4506 885.399 56.4551 885.399 56.4596C885.399 56.4641 885.399 56.4686 885.399 56.4731C885.399 56.4775 885.399 56.482 885.399 56.4865C885.399 56.491 885.399 56.4955 885.399 56.5H895.399ZM895.399 50.35V1.89999H885.399V50.35H895.399ZM890.399 6.89999H916.199V-3.10001H890.399V6.89999ZM911.199 1.89999V109H921.199V1.89999H911.199Z" fill="#418F86" mask="url(#path-1-outside-1_1_327)"/>
</svg>
